<?xml version="1.0" standalone="no"?>
<!DOCTYPE svg PUBLIC "-//W3C//DTD SVG 20010904//EN"
 "http://www.w3.org/TR/2001/REC-SVG-20010904/DTD/svg10.dtd">
<svg version="1.0" xmlns="http://www.w3.org/2000/svg"
 width="1088.000000pt" height="1080.000000pt" viewBox="0 0 1088.000000 1080.000000"
 preserveAspectRatio="xMidYMid meet">
<metadata>
Created by potrace 1.16, written by Peter Selinger 2001-2019
</metadata>
<g transform="translate(0.000000,1080.000000) scale(0.100000,-0.100000)"
fill="#000000" stroke="none">
<path d="M3577 10793 c-13 -12 -7 -33 9 -33 8 0 13 4 9 9 -3 5 -1 12 4 16 6 3
13 -11 16 -32 7 -46 19 -69 34 -65 6 1 11 -4 11 -12 0 -7 7 -27 15 -42 8 -16
15 -36 15 -45 0 -14 39 -49 55 -49 3 0 5 11 5 25 0 16 -5 25 -13 23 -7 -2 -14
0 -15 5 -6 20 0 29 18 24 10 -3 21 0 24 7 2 6 5 1 5 -12 1 -14 10 -27 25 -33
14 -7 22 -17 19 -25 -3 -8 0 -14 6 -14 6 0 11 5 11 10 0 5 6 9 13 8 7 -2 13 8
13 22 2 43 4 47 19 47 10 0 13 -7 9 -23 -3 -12 -1 -25 5 -29 6 -3 9 -10 6 -15
-3 -4 4 -6 15 -3 10 3 26 -2 35 -11 15 -14 18 -14 41 0 13 9 24 20 24 25 0 11
40 32 47 25 3 -3 -2 -17 -11 -31 -11 -17 -13 -25 -4 -25 9 0 9 -3 0 -12 -7 -7
-12 -17 -12 -23 0 -5 5 -3 10 5 9 13 10 13 10 0 0 -8 -4 -21 -9 -29 -8 -12
-13 -12 -24 -3 -17 15 -44 7 -44 -13 0 -21 25 -27 35 -8 6 10 12 12 16 5 4 -6
14 -8 23 -5 12 5 14 3 8 -7 -6 -9 -4 -12 6 -8 9 3 26 -2 39 -12 18 -14 28 -16
38 -8 9 8 11 7 7 -5 -9 -23 12 -30 37 -13 25 18 42 21 34 7 -8 -12 18 -32 43
-34 16 -1 21 -11 26 -49 4 -26 12 -48 18 -48 7 0 6 -5 -3 -11 -12 -9 -11 -9 5
-4 27 10 69 13 75 6 3 -3 15 -14 27 -24 21 -18 22 -18 16 2 -4 17 -2 20 13 14
23 -9 54 -35 54 -46 0 -4 -6 -5 -12 -1 -7 4 -6 -1 3 -12 11 -12 14 -26 9 -39
-5 -14 -1 -26 16 -42 13 -12 24 -33 24 -46 0 -13 3 -27 8 -31 4 -4 7 -11 8
-14 2 -33 18 -72 29 -72 7 0 18 -7 25 -15 7 -8 16 -15 21 -15 15 0 10 52 -6
70 -13 14 -13 22 -4 46 7 16 12 32 11 37 -1 4 6 7 16 7 12 0 18 9 19 32 1 17
8 36 14 42 9 8 10 -5 5 -54 -3 -36 -2 -72 3 -79 6 -9 6 -22 1 -31 -5 -9 -5
-22 1 -31 5 -8 9 -9 9 -2 0 6 8 11 19 10 11 -1 17 -7 14 -17 -5 -19 48 -81 55
-62 2 7 9 18 16 25 18 18 26 46 16 52 -5 3 -7 12 -4 20 3 8 -4 20 -15 27 -22
14 -28 56 -12 86 14 27 -5 62 -33 62 -18 0 -24 4 -20 15 11 27 -7 36 -25 13
l-18 -21 -7 26 c-4 18 -13 27 -27 27 -16 0 -18 3 -9 19 14 27 13 34 -10 58
-16 18 -25 20 -50 13 -17 -5 -31 -9 -33 -8 -1 0 -19 -8 -40 -18 -33 -16 -40
-16 -49 -4 -8 12 -9 12 -4 -2 3 -12 0 -18 -10 -18 -22 0 -26 23 -9 56 22 42
20 74 -5 74 -11 0 -29 8 -40 18 -11 9 -26 17 -33 17 -7 1 -10 7 -8 15 14 53
13 60 -10 69 -13 5 -18 10 -11 10 7 1 10 6 7 11 -3 6 -1 10 4 10 6 0 11 5 11
11 0 5 -5 7 -12 3 -6 -4 -8 -3 -4 4 10 17 -11 60 -34 67 -13 4 -23 18 -27 36
-3 16 -12 29 -20 29 -8 0 -25 12 -38 26 -23 25 -45 26 -45 2 0 -6 -11 -26 -25
-44 -14 -18 -25 -39 -25 -48 0 -19 -43 -51 -49 -35 -5 17 20 58 40 64 19 6 22
46 5 73 -10 17 -26 15 -26 -3 0 -8 -6 -15 -13 -15 -7 0 -13 9 -13 19 0 11 5
17 11 13 5 -3 4 2 -4 12 -17 21 -51 15 -84 -15 -12 -11 -29 -26 -38 -34 -21
-20 -33 -6 -14 15 13 14 12 19 -9 43 -24 27 -27 28 -123 26 -76 -1 -100 -5
-100 -15 0 -7 4 -11 9 -8 7 4 10 -11 7 -32 0 -3 6 -16 15 -28 16 -25 12 -36
-11 -36 -10 0 -12 7 -8 19 3 12 0 21 -9 24 -9 4 -17 -2 -21 -14 -10 -29 -27
-12 -24 25 4 62 2 66 -39 66 -21 0 -42 -3 -45 -7z"/>
<path d="M6465 10782 c4 -9 12 -29 17 -44 9 -25 15 -28 55 -28 41 0 50 -5 94
-49 27 -28 49 -54 49 -60 0 -19 -141 -176 -163 -181 -14 -4 -23 -15 -25 -30
-2 -13 -10 -33 -18 -44 -18 -27 -18 -32 7 -55 28 -26 47 -18 41 19 -5 32 6 50
69 118 24 26 67 75 94 109 28 35 53 63 57 63 4 0 10 -10 14 -22 12 -41 35 -59
66 -53 18 4 28 2 28 -5 0 -6 5 -8 12 -4 8 5 6 11 -6 20 -11 8 -13 14 -7 19 6
3 11 3 11 -2 0 -4 5 -1 10 7 8 13 10 12 10 -2 0 -28 1 -32 12 -45 6 -7 7 -13
4 -13 -4 0 -2 -9 4 -19 6 -13 16 -17 31 -14 15 4 32 -7 68 -46 26 -28 52 -51
58 -51 5 0 18 -8 27 -19 16 -17 16 -20 1 -35 -12 -12 -13 -16 -3 -16 7 0 18
10 23 23 6 12 16 21 23 20 6 -2 9 4 6 12 -4 8 -1 15 5 15 19 0 12 20 -11 31
-17 7 -23 20 -25 45 -2 33 17 48 32 24 3 -5 15 -10 25 -10 10 0 21 -6 23 -12
4 -9 6 -8 6 2 1 8 -8 30 -20 49 -16 27 -18 36 -7 42 18 12 -2 42 -33 49 -17 4
-25 15 -29 35 -4 25 -10 30 -35 31 -16 1 -30 5 -32 10 -12 34 -66 98 -98 114
-35 18 -60 20 -258 20 -203 -1 -218 -2 -212 -18z"/>
<path d="M7083 10782 c-9 -15 -6 -27 17 -63 15 -25 40 -54 56 -64 16 -10 33
-22 39 -27 5 -5 19 -15 30 -22 17 -12 18 -16 5 -32 -12 -13 -12 -18 -2 -21 6
-3 12 -9 12 -15 0 -5 7 -16 15 -24 16 -16 19 -10 16 29 -1 9 3 17 9 17 6 0 9
4 5 9 -3 5 -1 12 4 15 5 3 11 -4 14 -15 3 -12 10 -19 15 -15 5 3 9 -1 9 -9 0
-8 -4 -12 -9 -9 -4 3 -8 -2 -8 -10 0 -9 -9 -25 -19 -35 -17 -17 -18 -21 -5
-32 7 -6 23 -9 33 -6 13 3 18 1 14 -9 -6 -17 27 -74 44 -74 21 0 15 -21 -7
-27 -24 -6 -25 -20 -3 -45 15 -17 17 -17 35 -1 13 12 21 14 29 6 6 -6 18 -9
25 -6 9 3 14 -1 14 -12 0 -10 6 -15 18 -13 11 2 17 12 17 28 0 15 -5 24 -13
22 -8 -1 -11 2 -7 8 3 5 2 10 -4 10 -6 0 -8 6 -5 14 6 17 41 10 66 -13 9 -9
26 -46 39 -84 13 -41 27 -67 36 -67 9 0 13 7 11 18 -2 9 -10 16 -16 14 -17 -3
-15 13 3 28 21 17 19 35 -5 51 -25 17 -37 69 -16 69 32 0 49 -15 71 -66 13
-30 30 -54 38 -54 7 0 28 -16 45 -36 27 -30 30 -39 21 -57 -10 -18 -7 -24 21
-47 29 -24 31 -28 17 -42 -16 -16 -17 -34 -4 -56 18 -28 17 -61 -2 -74 -17
-12 -21 -19 -21 -33 0 -2 -11 0 -24 5 -15 5 -27 5 -34 -2 -8 -8 -11 -2 -9 25
3 32 1 35 -15 26 -18 -10 -20 -15 -20 -44 0 -36 3 -46 12 -40 6 3 10 2 10 -3
0 -16 -36 -20 -55 -6 -29 22 -35 17 -35 -26 0 -22 -4 -40 -10 -40 -5 0 -10 5
-10 10 0 6 -6 10 -13 10 -7 0 -19 9 -26 19 -14 18 -15 18 -35 -12 -42 -62 -63
-35 -26 33 40 74 48 95 39 106 -12 14 30 53 53 49 16 -3 16 -1 1 21 -8 13 -19
24 -23 24 -4 0 -12 11 -18 25 -7 14 -28 32 -50 40 -27 11 -44 27 -55 50 -9 19
-21 35 -26 35 -21 0 -41 -13 -35 -24 3 -6 -2 -2 -10 8 -9 11 -16 25 -16 31 0
16 -29 73 -41 80 -5 4 -9 17 -9 30 0 13 -7 31 -16 40 -9 8 -14 22 -11 29 4 10
-1 12 -16 9 -18 -4 -19 -3 -7 6 13 9 13 11 -2 11 -9 0 -23 2 -31 5 -8 4 -14 0
-14 -10 0 -8 6 -15 13 -15 6 0 15 -7 18 -16 3 -8 11 -12 17 -8 8 4 8 1 1 -12
-5 -11 -7 -25 -4 -33 2 -8 0 -11 -6 -7 -6 3 -12 0 -15 -6 -3 -10 -7 -10 -17
-1 -9 8 -8 15 8 31 18 18 18 21 5 26 -9 4 -18 4 -21 1 -3 -3 0 -5 7 -5 7 0 9
-5 6 -10 -4 -6 -11 -7 -17 -4 -7 5 -8 2 -3 -6 6 -10 4 -12 -7 -7 -9 3 -24 -3
-34 -14 -9 -10 -14 -19 -10 -19 3 0 -1 -11 -10 -25 -9 -14 -20 -23 -24 -20 -8
5 -40 -26 -37 -37 1 -3 -12 -22 -30 -41 -17 -19 -29 -38 -26 -41 4 -3 2 -6 -4
-6 -6 0 -9 -8 -6 -18 4 -18 32 -26 34 -10 3 20 5 25 24 56 19 31 44 43 46 22
1 -5 2 -13 3 -18 2 -12 46 -66 46 -56 1 5 8 -2 16 -16 8 -14 13 -18 10 -8 -6
19 34 34 45 16 8 -13 1 -38 -11 -38 -5 0 -7 -8 -5 -17 2 -10 6 -30 9 -45 3
-14 19 -39 34 -55 27 -27 55 -86 46 -96 -2 -2 1 -9 8 -15 9 -7 19 -6 32 4 11
8 14 14 8 14 -7 0 -12 5 -12 11 0 6 7 9 15 6 8 -4 17 -1 21 5 4 6 3 8 -4 4 -6
-3 -13 -2 -17 4 -3 5 -1 10 4 10 6 0 10 5 8 11 -1 6 4 14 12 17 8 3 11 0 7 -7
-4 -6 -2 -11 4 -11 7 0 10 7 7 15 -4 8 -2 17 4 20 5 4 6 11 3 17 -5 7 -1 9 9
5 10 -3 17 -2 17 3 0 6 -9 10 -19 10 -11 0 -23 5 -27 12 -5 7 -2 9 7 4 10 -6
10 -4 -1 6 -8 7 -16 20 -18 28 -3 12 -1 12 15 -1 21 -19 63 -31 63 -19 0 5 10
10 23 12 12 2 21 8 19 13 -4 12 -46 7 -50 -6 -2 -6 -11 -4 -20 3 -12 10 -14
10 -8 1 4 -7 3 -13 -3 -13 -13 0 -32 35 -24 44 3 3 -3 6 -14 6 -12 0 -23 8
-26 20 -4 15 0 20 13 20 11 0 20 10 24 26 l7 26 42 -44 c23 -24 41 -47 39 -52
-2 -5 6 -6 18 -3 11 3 18 1 14 -5 -3 -5 2 -18 11 -28 12 -13 14 -25 9 -42 -4
-13 -8 -27 -9 -33 0 -6 -19 -9 -41 -7 -31 3 -43 -1 -48 -13 -3 -9 -2 -14 3
-11 4 3 6 -6 3 -19 -2 -14 -8 -25 -13 -25 -4 0 -15 -15 -24 -34 -13 -27 -21
-33 -37 -28 -17 4 -20 2 -15 -12 4 -10 7 -20 7 -22 0 -3 4 -3 8 0 4 2 8 -4 8
-14 0 -10 -3 -18 -6 -18 -22 2 -40 -4 -40 -13 0 -6 -11 -24 -25 -41 -14 -16
-25 -42 -25 -58 0 -15 -6 -30 -14 -33 -9 -4 -12 -15 -8 -32 4 -25 3 -27 -19
-20 -18 6 -21 4 -13 -5 16 -16 6 -50 -12 -43 -20 7 -18 -31 2 -63 9 -13 15
-26 13 -27 -49 -27 -47 -28 -54 3 -4 17 -13 30 -20 30 -8 0 -19 9 -25 21 -7
12 -17 18 -27 15 -9 -4 -17 1 -20 14 -3 11 -10 20 -17 21 -6 0 -20 3 -31 6
-37 9 -66 5 -78 -12 -13 -16 -52 -11 -41 6 3 5 -2 6 -10 3 -9 -3 -16 -1 -16 4
0 6 16 14 35 18 20 3 40 15 46 25 7 15 6 17 -6 13 -8 -3 -12 -11 -8 -17 4 -6
1 -7 -6 -3 -7 5 -10 14 -7 21 2 7 -4 15 -16 18 -11 3 -17 10 -14 15 3 6 -1 13
-10 16 -22 9 -21 9 -34 -29 -11 -35 -41 -48 -55 -25 -4 6 -16 10 -27 8 -15 -2
-26 6 -38 27 -18 33 -50 46 -50 21 0 -8 14 -35 30 -60 24 -35 36 -44 56 -43
15 1 29 -5 33 -13 4 -8 15 -30 24 -48 22 -44 21 -62 -3 -62 -13 0 -20 7 -20
20 0 26 -14 25 -32 -2 -11 -17 -23 -22 -50 -20 -44 3 -66 -18 -43 -42 11 -11
12 -16 4 -16 -7 0 -10 -3 -6 -6 11 -11 -57 -68 -79 -66 -14 2 -30 -8 -47 -30
-15 -18 -33 -41 -41 -50 -11 -12 -12 -18 -3 -22 7 -3 6 -5 -3 -5 -11 -1 -15
-10 -14 -33 1 -18 3 -35 4 -38 1 -3 2 -9 1 -13 -1 -5 4 -5 11 -1 7 5 19 9 26
10 19 3 28 14 12 14 -9 0 -8 6 5 20 21 23 55 27 55 5 0 -8 8 -15 18 -15 19 0
34 -22 50 -75 8 -28 11 -29 65 -30 32 -1 62 -6 68 -12 6 -6 17 -10 23 -9 6 2
8 1 3 -1 -4 -3 -5 -8 -2 -13 6 -10 -25 -45 -48 -53 -10 -4 -15 -12 -12 -18 16
-25 -7 -78 -55 -126 -42 -42 -48 -52 -36 -62 10 -9 12 -20 6 -40 -10 -35 -70
-145 -82 -149 -4 -2 -6 -8 -2 -13 3 -5 0 -9 -7 -9 -7 0 -10 -3 -6 -6 3 -3 -1
-25 -10 -47 -8 -23 -23 -74 -33 -114 -25 -95 -55 -153 -80 -153 -18 0 -60 -35
-60 -51 0 -4 9 -11 21 -14 11 -4 19 -14 17 -23 -4 -22 -23 -25 -42 -7 -23 24
-20 3 4 -23 12 -12 18 -22 14 -22 -3 0 -1 -6 5 -14 19 -23 2 -46 -32 -44 -22
2 -35 11 -49 34 -12 21 -29 34 -50 38 -46 9 -58 7 -52 -8 6 -16 -21 -46 -42
-46 -23 0 -16 -17 18 -41 30 -22 33 -22 73 -8 60 22 97 2 85 -46 -2 -5 -3 -50
-4 -100 -2 -49 -8 -100 -14 -112 -19 -34 -15 -44 13 -37 30 7 29 9 9 -70 -10
-33 -16 -71 -16 -84 1 -13 -2 -21 -6 -18 -5 3 -9 -10 -10 -28 -1 -19 -3 -40
-4 -47 -2 -8 3 -14 11 -14 8 0 30 29 48 65 19 35 56 94 83 130 77 100 158 223
193 292 18 35 39 74 48 88 9 14 35 57 59 95 71 114 250 279 281 260 5 -4 9 -2
9 3 0 5 7 9 15 9 12 0 12 -3 3 -16 -8 -10 -4 -8 10 3 17 14 22 16 22 5 0 -12
2 -12 9 1 6 8 7 18 4 23 -3 5 3 5 13 0 27 -13 47 -10 51 7 4 13 3 13 -6 0 -6
-8 -11 -10 -11 -4 0 6 6 17 14 23 11 9 15 9 19 -1 4 -9 6 -10 6 -1 1 7 7 10
15 7 8 -3 17 0 22 7 4 8 3 10 -4 5 -7 -4 -10 -2 -7 6 6 14 75 20 75 7 0 -4 12
-6 26 -3 21 4 25 1 21 -10 -4 -9 -1 -18 5 -22 7 -4 8 -3 4 4 -4 7 -1 12 9 12
9 0 13 -4 10 -10 -3 -5 -2 -10 4 -10 5 0 11 5 13 11 2 5 11 7 21 3 14 -5 17
-13 12 -33 -3 -14 -2 -21 2 -15 4 6 18 14 30 18 19 6 22 4 17 -11 -5 -17 -5
-17 6 0 20 31 19 51 -4 69 -21 18 -20 18 28 13 46 -4 49 -3 33 12 -12 12 -19
14 -30 5 -10 -9 -14 -9 -14 1 0 6 -2 18 -4 26 -2 7 4 15 14 16 15 3 16 1 6
-11 -16 -19 -5 -29 13 -11 11 12 16 12 26 0 9 -9 10 -13 1 -13 -8 0 -8 -5 2
-16 7 -8 20 -13 30 -11 12 3 16 0 12 -9 -4 -10 -10 -11 -24 -3 -11 6 -19 6
-19 0 0 -5 -9 -7 -20 -4 -15 4 -20 0 -20 -13 0 -15 2 -16 9 -5 10 16 26 8 41
-20 9 -16 8 -19 -7 -16 -10 1 -23 6 -29 10 -7 4 -17 0 -24 -8 -10 -12 -7 -17
16 -26 16 -6 43 -11 60 -12 21 -1 30 -5 27 -13 -3 -9 -12 -10 -29 -3 -17 6
-23 6 -19 -1 3 -6 13 -10 21 -10 8 0 13 -4 10 -9 -3 -5 1 -12 10 -15 24 -9 31
-7 14 4 -11 7 -11 10 -2 10 7 0 10 5 7 10 -4 6 -1 18 6 26 9 11 9 21 1 39 -7
14 -8 25 -2 25 13 0 31 -36 22 -45 -4 -5 -1 -4 7 0 8 5 27 9 43 10 25 2 27 -1
21 -24 -3 -14 -7 -28 -9 -30 -2 -2 3 -13 13 -23 9 -10 11 -18 5 -18 -13 0 -34
35 -25 43 3 3 -6 4 -21 1 -20 -3 -24 -1 -20 11 6 15 -7 21 -19 9 -12 -13 6
-34 30 -34 21 0 23 -2 13 -15 -6 -8 -10 -20 -7 -27 4 -8 6 -7 6 5 1 9 6 17 11
17 6 0 8 -12 5 -27 -3 -16 -2 -22 1 -15 3 6 10 12 15 12 6 0 7 -4 4 -10 -9
-14 8 -13 23 2 9 9 12 9 12 0 0 -6 -15 -16 -32 -21 -18 -5 -25 -10 -16 -10 9
-1 21 -8 26 -18 17 -29 39 -9 36 34 -2 24 0 33 5 24 5 -7 6 -22 3 -34 -3 -14
-1 -18 6 -13 7 4 12 14 12 23 0 14 2 14 19 -1 15 -13 20 -14 24 -4 4 7 3 -3 0
-22 -3 -19 -6 -40 -6 -47 0 -7 -4 -10 -9 -7 -5 3 -6 9 -4 13 3 4 1 13 -4 21
-7 12 -12 12 -22 2 -9 -9 -9 -12 0 -12 7 0 12 -4 12 -9 0 -11 -19 -9 -38 3 -7
4 -16 5 -19 2 -4 -3 -2 -6 4 -6 6 0 10 -8 8 -17 -1 -10 0 -13 2 -7 5 15 43 6
43 -10 0 -7 4 -6 9 2 4 8 12 13 17 12 5 -1 12 9 16 22 6 23 12 8 9 -25 -1 -9
5 -20 13 -23 9 -3 13 -10 10 -15 -3 -5 0 -9 5 -9 6 0 11 4 11 10 0 5 7 7 15 4
10 -4 15 0 15 11 0 10 5 13 12 9 6 -4 9 -3 6 2 -3 5 0 15 8 22 9 8 14 9 14 2
0 -6 5 -8 10 -5 8 5 7 12 -1 22 -11 13 -14 13 -26 -3 -7 -10 -13 -14 -14 -8 0
5 -4 -1 -9 -13 -5 -13 -17 -23 -26 -23 -10 0 -14 5 -10 16 3 8 2 12 -4 9 -6
-3 -10 -2 -10 4 0 5 -3 16 -6 24 -3 8 4 24 16 35 14 13 19 26 15 34 -5 7 2 3
14 -10 13 -13 20 -29 17 -37 -8 -21 9 -27 24 -10 9 10 9 15 1 15 -6 0 -11 7
-11 15 0 8 5 15 10 15 8 0 8 6 1 18 -7 13 -5 20 11 28 14 7 17 14 9 18 -6 4
-11 2 -11 -4 0 -6 -4 -8 -10 -5 -16 10 -11 35 8 36 13 0 14 2 2 6 -25 9 -50
35 -44 45 3 5 12 1 20 -9 14 -17 15 -17 9 5 -5 16 -2 22 9 22 9 0 16 -5 16
-12 0 -6 3 -8 7 -4 13 13 12 39 -3 61 -17 26 -9 38 17 25 11 -6 16 -18 14 -30
-3 -13 2 -20 12 -20 11 0 13 4 6 13 -5 6 -6 23 -2 37 5 17 7 19 8 7 1 -12 6
-16 14 -11 10 6 10 4 0 -7 -17 -18 -16 -32 2 -26 8 4 17 1 21 -5 4 -7 3 -8 -4
-4 -7 4 -12 1 -12 -9 0 -11 -6 -14 -25 -9 -16 4 -25 2 -25 -6 0 -6 4 -9 9 -5
5 3 12 1 16 -5 4 -6 11 -8 16 -5 5 4 9 1 9 -5 0 -7 -6 -10 -13 -7 -6 2 -18 -2
-25 -9 -7 -8 -10 -14 -6 -14 4 0 -1 -9 -11 -20 -10 -11 -13 -20 -7 -20 7 0 12
4 12 9 0 14 42 4 52 -11 12 -20 10 -28 -7 -22 -8 4 -13 10 -10 14 12 19 -29 1
-47 -21 -11 -13 -16 -17 -12 -9 6 12 5 13 -7 2 -12 -11 -12 -14 1 -22 25 -16
37 -11 35 15 -2 14 1 27 5 30 5 3 7 -6 4 -20 -2 -14 0 -25 6 -25 5 0 10 8 11
18 0 10 3 12 6 4 2 -6 10 -9 15 -5 7 4 9 -2 6 -15 -4 -12 -2 -25 3 -28 5 -3 9
-17 9 -31 0 -15 -3 -23 -7 -19 -4 4 -8 17 -8 29 0 14 -5 21 -14 19 -12 -3 -12
0 -1 13 11 13 10 14 -5 9 -21 -8 -68 -54 -55 -54 5 0 14 -16 21 -35 7 -19 17
-35 22 -35 4 0 5 5 1 12 -5 8 -2 9 10 5 10 -4 15 -3 11 3 -3 5 4 14 15 20 16
9 20 8 20 -5 0 -9 -4 -14 -9 -11 -11 7 -23 -22 -15 -36 3 -5 12 -7 20 -4 8 3
14 -1 14 -9 0 -8 5 -15 11 -15 5 0 8 -4 5 -9 -3 -5 0 -11 7 -14 7 -3 12 5 13
22 0 14 2 35 5 45 2 11 -2 21 -11 23 -13 4 -13 3 0 -6 11 -8 12 -11 2 -11 -8
0 -16 9 -19 20 -3 11 -9 20 -14 20 -5 0 -9 5 -9 11 0 5 4 8 9 4 5 -3 12 -1 16
5 9 15 25 12 19 -4 -3 -8 -1 -17 5 -21 7 -4 8 0 4 11 -5 13 -3 15 7 9 9 -6 11
-4 5 5 -6 10 -3 12 14 7 27 -7 50 27 25 37 -13 5 -14 9 -4 21 10 13 9 15 -9
15 -14 0 -20 -4 -15 -12 4 -7 3 -8 -5 -4 -6 4 -18 0 -27 -8 -8 -9 -11 -16 -5
-16 6 0 11 -4 11 -9 0 -5 -10 -7 -22 -4 -17 3 -19 2 -9 -5 7 -5 9 -12 4 -15
-6 -4 -15 5 -22 19 -6 14 -7 23 -2 19 6 -3 15 4 21 15 6 11 19 20 28 20 10 0
23 5 30 12 7 7 12 9 12 5 0 -4 9 -3 20 3 23 13 26 1 8 -33 -10 -19 -9 -20 3
-10 10 8 20 9 29 3 9 -6 10 -10 3 -10 -7 0 -10 -10 -7 -27 3 -20 2 -24 -5 -13
-5 8 -7 18 -4 24 4 5 1 6 -6 1 -7 -4 -11 -16 -8 -26 3 -11 1 -17 -3 -14 -5 3
-11 1 -15 -5 -4 -6 -11 -7 -17 -4 -6 4 -8 2 -4 -4 4 -7 17 -8 37 -2 27 8 29 7
24 -11 -5 -15 -2 -19 18 -19 14 0 27 -5 29 -12 5 -13 38 -4 38 11 0 6 -7 8
-15 5 -8 -4 -15 -1 -15 5 0 6 3 10 8 10 4 -1 10 0 15 1 4 1 22 3 40 4 20 1 31
7 29 15 -1 7 2 10 8 6 14 -9 -6 -35 -27 -35 -8 0 -11 -4 -8 -10 3 -5 1 -10 -5
-10 -7 0 -10 7 -6 18 5 15 4 14 -9 -2 -14 -19 -11 -41 4 -31 5 2 22 0 39 -5
19 -5 34 -5 37 1 4 5 0 9 -8 9 -11 0 -13 7 -9 22 4 16 7 18 10 8 3 -8 8 -17
11 -20 4 -3 15 -18 24 -33 14 -22 21 -26 32 -17 9 8 15 8 20 0 3 -5 -1 -10 -9
-10 -8 0 -18 -5 -22 -11 -8 -13 15 -30 29 -22 5 3 3 9 -4 14 -11 7 -11 9 -1
10 27 3 31 4 38 12 4 4 17 7 28 7 15 0 17 -3 8 -8 -7 -5 -10 -16 -6 -25 3 -10
1 -17 -6 -17 -6 0 -8 5 -4 12 4 7 3 8 -4 4 -7 -4 -12 -14 -12 -22 0 -8 -4 -13
-9 -9 -15 8 -25 -15 -12 -28 9 -9 16 -8 31 1 11 7 20 8 20 3 0 -14 -26 -32
-35 -23 -5 4 -5 1 -1 -6 4 -7 12 -10 17 -7 5 3 6 -1 3 -9 -3 -9 -11 -14 -17
-13 -6 1 -12 -7 -14 -18 -3 -16 -2 -17 6 -5 5 8 13 12 16 8 4 -3 -4 -17 -16
-29 -29 -29 -32 -46 -10 -46 27 0 43 17 30 33 -9 11 -8 14 0 14 7 0 10 3 7 8
-2 4 2 15 9 25 9 12 15 14 20 7 4 -6 1 -19 -7 -28 -12 -15 -11 -16 5 -3 13 10
17 23 14 40 -5 23 -4 24 7 9 12 -16 14 -15 26 8 9 16 20 24 32 21 9 -3 16 0
15 6 -1 6 5 12 13 12 24 2 33 -7 19 -16 -10 -6 -10 -9 -2 -9 7 0 18 10 24 23
6 12 8 19 4 15 -5 -4 -14 -3 -22 3 -7 7 -13 7 -13 2 0 -6 -13 -6 -35 1 -34 11
-45 29 -25 41 6 3 7 -1 4 -9 -7 -17 -6 -17 68 -20 25 0 44 -4 41 -8 -2 -5 1
-8 7 -8 6 0 8 -5 4 -12 -5 -8 -1 -8 12 2 29 22 30 24 12 17 -12 -4 -18 -1 -18
8 0 13 11 19 31 17 3 -1 6 6 6 14 0 8 -6 13 -13 10 -6 -2 -14 5 -17 16 -3 11
-10 17 -16 13 -8 -4 -8 -13 0 -28 10 -21 9 -21 -5 -3 -21 25 -3 51 24 36 24
-13 33 -13 25 0 -3 6 1 10 10 10 9 0 28 7 43 16 19 11 22 12 10 2 -16 -14 -12
-15 37 -14 30 1 55 4 55 8 0 4 12 1 27 -7 18 -9 32 -11 44 -5 14 8 16 6 12 -9
-5 -20 -33 -38 -33 -21 0 5 -10 15 -22 21 l-23 11 23 -22 c13 -12 21 -28 19
-34 -3 -7 0 -13 6 -14 7 0 21 -3 32 -7 15 -4 24 1 37 22 16 25 17 26 18 7 0
-12 7 -25 16 -28 9 -4 14 -9 11 -12 -3 -3 -16 -1 -29 6 -22 11 -22 10 -4 -4
20 -17 56 -22 56 -8 0 13 -17 34 -26 32 -5 0 -10 7 -11 17 -2 10 0 12 3 5 3
-6 9 -10 14 -7 5 3 11 -3 15 -14 3 -11 13 -22 21 -25 8 -3 12 -2 9 4 -3 6 1
10 9 10 9 0 16 4 16 8 0 4 9 8 20 9 13 1 18 -2 14 -9 -5 -8 -1 -9 10 -5 10 4
15 3 11 -3 -4 -6 -17 -8 -31 -6 -17 3 -27 -1 -35 -16 -9 -16 -8 -19 3 -12 18
12 51 11 60 -1 5 -6 8 -5 8 3 0 6 5 12 11 12 5 0 8 -4 4 -9 -3 -5 0 -13 5 -16
17 -10 60 4 60 19 0 8 6 16 14 19 18 7 31 -24 15 -33 -7 -5 -8 -10 -1 -14 6
-3 12 -1 14 5 7 20 47 -13 53 -43 4 -15 13 -28 21 -28 8 0 15 -7 15 -15 3 -29
4 -33 13 -42 5 -5 6 -3 2 5 -4 7 -1 12 8 12 8 0 14 -6 12 -12 -1 -7 -1 -10 1
-5 8 13 32 7 41 -10 6 -11 6 -25 0 -39 -8 -18 -7 -29 6 -49 9 -14 16 -35 15
-48 -6 -63 1 -87 24 -88 12 0 16 -3 10 -6 -7 -2 -13 -11 -13 -19 0 -9 4 -13 8
-10 4 3 8 -22 7 -55 0 -32 2 -59 5 -59 3 0 6 -18 7 -40 1 -22 -2 -38 -6 -36
-7 5 -8 -1 -15 -83 -3 -30 -7 -65 -10 -77 -4 -13 0 -27 9 -34 12 -10 13 -16 4
-26 -8 -10 -8 -14 0 -14 6 0 11 -10 11 -22 0 -17 -3 -19 -9 -10 -7 11 -9 11
-14 -2 -4 -9 -1 -15 5 -13 16 3 18 -53 4 -72 -8 -11 -8 -13 0 -8 7 4 14 -2 17
-13 3 -11 0 -18 -6 -17 -6 1 -13 -9 -15 -23 -2 -14 -10 -32 -18 -41 -8 -9 -21
-36 -28 -60 -13 -41 -14 -42 -15 -14 -1 17 4 36 10 42 6 6 8 17 4 23 -5 8 -12
3 -20 -17 -10 -24 -18 -29 -43 -27 -19 1 -33 -4 -36 -12 -3 -8 -1 -14 5 -14 6
0 8 -4 4 -9 -3 -6 -14 -8 -25 -6 -15 3 -22 -3 -27 -23 -3 -15 -26 -47 -51 -72
-24 -25 -54 -66 -66 -92 -12 -25 -35 -61 -50 -80 -15 -18 -63 -78 -107 -133
-44 -55 -104 -129 -134 -165 -30 -36 -84 -110 -121 -165 -37 -55 -75 -112 -86
-127 -10 -15 -18 -31 -18 -35 0 -4 -36 -46 -79 -93 -44 -47 -75 -86 -70 -88
11 -5 105 58 163 109 49 44 89 109 84 137 -4 20 58 82 82 82 10 0 31 14 48 31
17 17 35 28 41 24 7 -3 11 -3 10 2 -3 19 3 31 40 73 22 25 37 48 35 51 -5 8
100 63 139 72 15 4 27 12 27 17 0 5 11 20 23 34 18 19 27 22 35 14 14 -14 23
-7 25 20 0 11 12 28 24 38 66 53 189 183 190 202 2 25 73 103 73 81 1 -8 6 -4
13 9 7 12 16 20 19 17 3 -3 11 9 19 27 7 18 22 40 33 49 18 15 20 28 19 123
-2 109 13 176 40 176 9 0 8 -3 -1 -9 -11 -7 -11 -9 2 -14 9 -4 17 -1 18 6 1
13 4 28 8 40 1 4 3 13 4 20 1 6 8 11 15 9 7 -1 10 2 5 9 -10 16 -11 69 -1 69
4 0 7 9 7 20 0 11 -4 20 -9 20 -5 0 -8 8 -6 18 1 9 -1 24 -6 33 -8 16 -10 24
-34 159 -14 83 -11 108 12 88 19 -15 35 7 30 40 -4 23 17 32 26 10 4 -10 6
-10 6 0 1 6 6 12 12 12 5 0 7 -4 4 -10 -3 -5 -1 -10 4 -10 6 0 11 8 11 19 0
14 6 17 24 14 23 -5 24 -3 20 31 -3 25 -1 35 8 34 7 -2 12 4 12 13 -1 17 12
19 32 6 7 -4 17 0 23 7 9 10 9 16 1 21 -8 5 -8 11 1 21 12 14 34 20 26 7 -3
-5 1 -14 9 -21 9 -8 14 -9 14 -2 0 6 6 8 13 4 6 -4 -3 6 -20 23 -40 38 -42 53
-6 47 26 -5 26 -4 10 14 -16 17 -16 20 3 40 12 12 18 22 14 22 -3 0 -2 6 4 13
6 6 10 17 10 22 -1 6 10 16 23 22 13 7 19 13 14 13 -6 0 -12 13 -13 29 -2 22
3 30 20 35 18 5 20 8 9 15 -8 5 -11 16 -7 26 3 10 1 24 -5 31 -9 11 -8 14 3
14 11 0 15 14 15 55 0 38 5 61 17 74 17 19 17 20 -13 35 -16 9 -38 16 -47 16
-16 0 -16 1 1 14 11 8 16 19 12 30 -4 9 -1 16 5 16 6 0 3 9 -6 19 -11 12 -24
17 -34 13 -15 -5 -14 -3 1 13 13 13 15 20 7 25 -9 5 -9 9 -1 14 17 11 5 98
-16 114 -15 11 -16 14 -3 22 8 5 18 6 23 3 14 -9 -22 56 -44 78 -14 14 -33 19
-79 19 -33 0 -60 -4 -60 -10 0 -17 -25 -11 -37 10 -11 17 -9 21 17 36 34 21
30 34 -11 34 -22 0 -29 5 -29 20 0 15 7 20 25 20 14 0 25 5 25 10 0 6 -9 10
-19 10 -11 0 -23 5 -27 11 -3 6 -17 8 -29 5 -34 -9 -39 9 -8 23 l27 12 -43 20
c-24 10 -50 19 -58 19 -8 0 -13 6 -11 13 3 6 27 15 54 18 27 3 42 7 34 7 -8 1
-26 12 -40 25 -31 28 -99 61 -123 60 -16 0 -16 1 -2 17 14 16 13 18 -15 30
-16 7 -30 18 -30 26 0 7 -9 16 -20 19 -11 4 -18 10 -15 15 7 12 -40 35 -87 44
-20 4 -39 13 -42 22 -4 10 -2 13 7 8 6 -4 -4 10 -24 30 -37 39 -60 48 -187 72
-40 7 -80 20 -88 29 -9 8 -19 13 -24 10 -5 -3 -11 -1 -15 5 -3 6 4 10 17 10
13 0 30 5 38 10 12 8 10 10 -10 10 -94 1 -193 12 -212 22 -12 7 -34 25 -48 39
-28 27 -91 47 -168 53 -41 4 -73 16 -40 16 9 0 21 7 28 15 10 13 9 15 -8 15
-12 0 -25 8 -31 17 -8 15 -14 16 -38 7 -16 -6 -38 -8 -48 -4 -17 6 -16 8 9 14
19 5 25 10 19 19 -5 7 -9 24 -8 38 1 25 -1 26 -42 21 -23 -2 -50 -1 -60 3 -10
5 -21 7 -25 7 -5 -1 -8 2 -8 7 0 4 -8 8 -17 8 -40 0 -53 4 -53 14 0 6 6 9 14
6 8 -3 20 0 26 8 14 17 71 11 83 -10 5 -10 16 -14 28 -10 11 4 30 -1 47 -13
15 -10 37 -21 49 -24 21 -6 85 11 99 25 12 12 41 -16 36 -35 -4 -18 -1 -19 62
-22 11 -1 21 -7 24 -14 5 -15 44 -16 60 0 9 9 12 6 12 -15 0 -21 7 -30 27 -38
16 -6 36 -17 45 -26 9 -8 23 -13 30 -10 7 2 27 -3 43 -11 17 -9 41 -16 53 -17
13 0 28 -8 33 -18 6 -9 15 -17 22 -17 7 0 24 -18 39 -39 20 -28 37 -41 62 -45
43 -8 73 16 68 53 -4 23 -3 23 13 8 15 -16 15 -19 -5 -47 l-21 -30 23 -24 c21
-22 101 -56 133 -56 8 0 20 -9 29 -21 19 -27 76 -66 110 -75 14 -3 26 -10 26
-16 0 -5 4 -7 9 -4 11 7 141 -122 141 -139 0 -14 51 -60 125 -114 37 -27 45
-39 41 -56 -4 -14 3 -32 17 -51 40 -51 141 -151 165 -163 22 -11 22 -11 10 8
-10 16 -10 25 -2 39 9 14 7 23 -12 45 -40 46 -30 69 19 46 19 -8 22 -16 19
-40 -4 -27 -2 -29 27 -29 19 0 33 6 36 15 17 54 15 52 29 33 15 -21 33 -23 38
-6 3 7 22 11 46 10 47 -2 48 -1 26 33 -18 28 -13 55 11 55 22 0 19 13 -10 40
-24 23 -25 23 -25 3 0 -12 -7 -23 -15 -27 -10 -4 -17 6 -25 33 -5 21 -19 46
-30 56 -26 24 -26 51 1 58 13 4 18 10 14 18 -14 22 -13 89 1 89 23 0 38 39 22
58 -7 9 -8 13 -2 9 7 -4 14 0 18 8 3 8 1 17 -5 20 -5 4 -6 11 -3 17 4 7 9 6
14 -2 6 -9 10 -6 15 9 4 14 15 21 31 21 27 0 34 27 9 36 -8 4 -15 14 -15 24 0
10 -7 20 -15 24 -8 3 -15 12 -15 20 0 7 7 16 15 20 22 8 18 21 -10 36 -14 7
-25 20 -25 29 0 11 -3 10 -15 -5 -8 -10 -15 -15 -15 -11 0 5 -7 1 -16 -7 -8
-9 -19 -14 -22 -12 -4 2 -13 -2 -20 -10 -8 -9 -9 -14 -2 -14 17 0 48 -33 59
-63 10 -27 10 -28 -11 -21 -31 9 -48 24 -48 40 0 7 -9 18 -20 24 -11 6 -20 8
-20 5 0 -3 -8 3 -18 13 -14 12 -16 22 -10 35 5 10 13 15 17 12 5 -3 11 2 15
10 3 8 12 12 20 9 8 -3 12 -12 9 -20 -9 -23 10 -16 47 18 19 18 39 31 43 30 5
-1 6 2 3 7 -3 5 1 11 9 15 8 3 17 1 20 -4 3 -4 1 -10 -5 -12 -5 -1 -6 -9 -1
-16 6 -10 13 -11 34 -1 21 9 24 15 16 26 -15 18 -4 16 27 -3 13 -9 28 -14 32
-10 9 9 -38 45 -59 46 -12 0 -39 37 -39 54 0 2 22 -2 49 -8 30 -7 57 -20 70
-36 l21 -25 19 24 c13 17 29 25 54 26 20 0 35 -4 34 -9 -1 -6 8 -12 19 -14 17
-2 21 -10 20 -30 -2 -41 19 -38 22 4 2 21 -1 34 -6 30 -5 -3 -22 6 -36 19 -24
22 -32 26 -52 24 -3 0 -14 11 -25 25 -11 15 -27 26 -35 26 -11 0 -10 -5 5 -22
22 -22 18 -43 -5 -34 -9 3 -14 -1 -15 -12 0 -13 -3 -12 -11 6 -6 12 -15 22
-20 22 -5 0 -6 -4 -3 -10 3 -6 -4 -10 -17 -10 -22 0 -33 13 -75 89 -9 17 -10
28 -3 35 13 13 13 36 0 36 -5 0 -19 -9 -30 -20 -23 -23 -26 -40 -6 -40 8 0 16
-7 20 -15 3 -9 0 -15 -9 -15 -8 0 -15 -5 -15 -11 0 -5 4 -8 9 -5 16 10 20 -34
4 -49 -11 -12 -11 -15 -1 -15 9 -1 7 -5 -5 -14 -16 -13 -16 -14 -1 -20 13 -5
14 -10 6 -18 -9 -9 -17 -7 -33 8 -13 10 -19 13 -15 7 4 -8 1 -13 -9 -13 -9 0
-13 4 -10 10 3 6 -1 7 -9 4 -9 -3 -16 -10 -16 -15 0 -5 -5 -9 -11 -9 -5 0 -7
5 -4 10 6 9 -16 15 -39 11 -5 -1 -6 5 -3 13 3 8 2 28 -3 45 -6 22 -5 30 3 28
7 -1 12 7 12 17 0 11 6 21 13 24 15 5 42 -15 42 -31 0 -6 -6 -2 -14 9 -13 16
-15 17 -21 3 -3 -8 -1 -28 4 -42 6 -15 7 -27 3 -27 -4 0 0 -5 8 -10 10 -6 21
-3 37 12 20 18 23 19 23 5 0 -9 5 -17 11 -17 6 0 8 9 4 20 -5 15 -2 20 12 20
11 0 14 3 7 8 -6 4 -10 19 -8 35 1 15 -2 27 -7 27 -5 0 -9 7 -9 15 0 8 -5 15
-11 15 -8 0 -7 5 2 16 11 14 11 18 -4 29 -10 7 -15 19 -12 26 4 10 -3 14 -20
14 -21 0 -23 -2 -10 -11 21 -16 19 -30 -5 -30 -12 0 -19 6 -17 16 1 8 -4 14
-10 12 -29 -5 -10 17 23 28 20 7 32 15 28 19 -15 10 -14 28 1 41 15 12 21 3
16 -24 -3 -14 49 -56 63 -50 7 3 34 -9 59 -27 42 -29 48 -31 76 -20 30 13 50
41 28 41 -7 0 -25 11 -41 25 -16 14 -25 25 -20 25 4 0 -1 7 -13 15 -18 13 -73
94 -73 109 0 3 7 3 16 -1 8 -3 13 -11 10 -18 -3 -8 4 -10 19 -7 20 3 25 -1 30
-24 11 -47 15 -57 22 -51 3 4 11 -1 18 -10 6 -9 29 -17 49 -18 22 -2 43 -10
51 -21 11 -15 16 -16 26 -7 9 9 8 15 -5 28 -20 21 -21 29 0 21 12 -4 15 -2 11
9 -4 8 -2 17 3 20 11 7 14 45 4 45 -3 0 -13 -4 -23 -10 -14 -7 -24 -4 -42 11
-18 15 -25 17 -29 7 -7 -18 -28 -17 -40 2 -15 24 -12 31 14 26 14 -2 27 1 30
7 3 9 7 8 14 -2 13 -19 24 2 17 32 -4 16 -1 30 11 41 14 14 15 22 5 43 -19 42
23 67 67 39 8 -5 12 3 12 26 0 33 -1 34 -33 30 -30 -3 -35 0 -47 29 -8 18 -16
27 -18 21 -2 -7 -9 -9 -15 -5 -7 4 -6 -1 2 -11 13 -15 12 -18 -6 -22 -11 -3
-26 -17 -32 -30 -10 -22 -13 -24 -26 -10 -8 8 -15 18 -15 23 0 5 -10 9 -21 10
-29 2 -35 11 -19 26 10 10 11 9 5 -3 -7 -13 -6 -13 7 -2 13 10 19 10 32 -3 9
-9 16 -12 16 -7 0 6 10 8 23 5 22 -5 22 -5 2 11 -17 13 -18 17 -5 26 13 8 12
10 -3 10 -15 0 -16 3 -5 23 7 12 11 26 10 30 -1 5 3 5 10 1 19 -12 39 -14 32
-3 -3 5 -9 7 -14 4 -8 -5 -26 32 -22 47 1 3 -5 9 -13 12 -8 3 -15 1 -15 -3 0
-10 -15 -9 -43 4 -25 11 -33 -1 -21 -33 10 -26 10 -27 -28 -27 -30 0 -44 7
-67 33 -27 29 -41 39 -41 28 0 -3 7 -12 16 -20 9 -9 17 -22 18 -30 1 -7 9 -25
19 -39 25 -39 22 -58 -9 -53 -35 7 -54 -2 -54 -26 0 -10 -4 -17 -9 -14 -5 3
-15 -2 -22 -12 -13 -15 -12 -16 4 -3 14 11 17 11 17 0 0 -11 2 -11 10 1 8 12
12 12 18 2 9 -13 42 -6 42 9 0 5 9 4 20 -3 11 -7 20 -23 20 -36 0 -18 4 -23
16 -18 11 4 15 2 11 -8 -4 -10 -1 -13 9 -9 10 4 17 -2 21 -16 3 -14 11 -20 20
-17 8 3 11 1 8 -4 -3 -6 -2 -10 4 -10 5 0 8 -8 6 -17 -2 -10 -4 -20 -4 -23 -1
-3 -9 7 -19 23 -10 15 -22 24 -27 20 -4 -5 -5 -2 0 6 5 9 3 12 -6 9 -8 -3 -14
-15 -13 -26 1 -33 -23 -34 -36 -1 -7 16 -18 29 -25 29 -15 0 -30 28 -34 63 -1
7 -7 5 -16 -7 -8 -10 -12 -23 -8 -28 9 -15 -30 8 -49 29 -16 17 -18 22 -18 43
0 5 -7 7 -15 4 -13 -6 -20 10 -16 38 0 4 -16 17 -37 29 -20 13 -39 27 -41 32
-6 15 -55 57 -66 56 -5 0 -4 -3 3 -6 6 -2 12 -13 12 -23 0 -24 54 -86 90 -105
31 -16 80 -93 80 -125 0 -17 -4 -21 -20 -17 -15 4 -20 0 -20 -16 0 -32 -15
-51 -35 -43 -12 4 -15 13 -11 31 5 20 3 25 -12 25 -11 0 -27 9 -37 20 -10 11
-24 20 -32 20 -24 0 -14 -29 16 -44 16 -9 32 -27 35 -41 4 -14 11 -23 16 -20
6 3 10 -3 10 -15 0 -12 -9 -24 -22 -29 -34 -12 -48 -3 -38 23 11 29 -11 61
-29 43 -10 -9 -11 -9 -6 3 4 11 -1 16 -16 17 -11 1 -31 13 -44 27 -24 26 -37
25 -28 -2 4 -13 3 -14 -5 -3 -8 11 -11 11 -16 0 -3 -8 -4 -4 -3 8 1 12 -9 33
-21 46 -13 14 -22 33 -20 43 5 29 38 29 65 -1 19 -20 28 -23 38 -15 7 6 11 20
8 31 -3 11 -8 18 -10 15 -3 -3 -12 2 -20 10 -8 8 -25 12 -39 10 -14 -3 -22 -1
-19 5 4 5 2 9 -2 9 -8 0 -44 54 -43 65 3 46 -2 75 -14 75 -8 0 -16 -5 -18 -12
-3 -7 -7 -6 -11 5 -3 9 -2 17 3 17 18 0 10 29 -10 40 -17 9 -20 8 -20 -9 0
-44 -76 -102 -95 -71 -3 5 -12 7 -19 4 -7 -3 -19 2 -26 11 -11 14 -10 17 8 22
26 6 26 7 6 38 -13 19 -14 28 -5 39 9 11 4 20 -28 45 -32 25 -40 28 -44 16 -4
-11 -4 -10 -3 2 3 30 95 24 133 -8 23 -19 40 -25 74 -24 43 1 44 2 51 41 8 43
-8 97 -26 91 -12 -4 -12 -23 0 -70 6 -25 4 -28 -12 -25 -11 2 -19 12 -19 22 0
11 -6 21 -13 24 -6 2 -12 -3 -12 -12 0 -18 -15 -21 -25 -6 -3 5 -16 9 -28 9
-12 0 -31 2 -42 4 -11 3 -29 6 -40 7 -19 1 -19 1 2 19 12 10 19 22 15 25 -3 4
0 11 7 16 9 5 20 3 28 -6 8 -8 21 -14 29 -14 8 0 14 -4 14 -10 0 -5 7 -10 15
-10 22 0 18 15 -10 36 -14 10 -25 28 -25 40 0 12 -10 25 -25 32 -17 8 -25 20
-25 37 0 23 -3 25 -50 22 -34 -1 -52 -7 -55 -17 -3 -8 -16 -15 -30 -15 -21 0
-23 2 -10 11 17 13 10 24 -17 24 -17 0 -23 -18 -19 -62 1 -9 -6 -29 -15 -43
l-17 -26 -15 22 c-18 26 -24 77 -9 86 5 3 7 2 4 -4 -3 -5 0 -10 7 -10 12 0 13
6 7 36 -1 2 -8 -3 -18 -10 -13 -11 -17 -11 -20 -1 -4 9 -92 12 -399 12 -344 0
-394 -2 -394 -15 0 -8 -5 -15 -11 -15 -5 0 -7 -4 -4 -10 3 -5 2 -10 -3 -10 -5
0 -12 -9 -15 -20 -4 -14 -11 -18 -28 -15 -13 3 -25 9 -27 15 -2 6 -9 7 -15 3
-7 -4 -5 2 3 12 8 10 10 16 5 13 -6 -4 -17 3 -25 15 -12 20 -12 21 3 8 10 -7
17 -9 17 -3 0 5 -6 12 -14 15 -25 10 -986 8 -986 -2 0 -5 19 -28 43 -52 23
-23 35 -38 27 -31 -9 6 -21 7 -29 3 -13 -8 -12 -41 1 -51 8 -6 16 -41 17 -72
1 -9 9 -24 18 -34 27 -27 24 -42 -14 -65 l-34 -21 20 -22 c24 -26 26 -39 8
-54 -10 -9 -19 -7 -35 4 -17 12 -20 19 -12 38 7 19 5 26 -7 30 -9 4 -19 3 -22
-1 -3 -4 -17 -9 -30 -11 -13 -1 -34 -14 -47 -27 -20 -22 -26 -24 -43 -14 -14
10 -18 23 -18 60 1 44 2 46 14 29 18 -25 27 -25 63 1 l29 22 -24 19 -25 19 28
28 c29 30 51 31 49 1 -1 -10 -7 -16 -14 -13 -8 3 -13 -3 -13 -15 0 -14 6 -20
19 -19 11 0 17 5 15 9 -3 4 1 8 9 8 15 0 20 57 7 75 -5 6 -7 25 -5 42 1 18 -1
30 -6 27 -5 -3 -9 2 -9 10 0 9 -3 15 -7 15 -23 -4 -35 3 -29 16 3 8 1 15 -4
15 -5 0 -7 7 -4 15 4 8 14 15 23 15 14 0 14 -2 1 -11 -10 -7 -11 -9 -2 -7 31
8 13 23 -30 26 -34 2 -48 -1 -50 -10 0 -7 -2 -19 -2 -26 -2 -18 -26 -31 -44
-25 -8 3 -21 20 -29 37 -8 19 -12 22 -10 9 3 -15 1 -20 -9 -16 -7 2 -10 11 -7
19 4 11 -5 14 -41 14 -35 0 -44 -3 -40 -14 6 -16 -24 -81 -33 -72 -3 3 -12 -2
-20 -12 -8 -9 -12 -11 -8 -4 3 6 2 12 -3 12 -5 0 -12 9 -15 19 -3 13 0 18 7
15 9 -3 11 4 8 26 -4 29 -5 30 -61 30 -44 0 -59 -4 -68 -18z m857 -322 c6 0 8
5 5 10 -3 6 -1 10 4 10 10 0 14 -11 13 -30 0 -3 11 -5 24 -5 22 0 29 7 25 28
-2 9 14 2 37 -16 8 -6 9 -14 3 -21 -5 -6 -11 -29 -13 -51 -2 -33 -7 -40 -25
-41 -12 -1 -20 2 -18 7 3 4 -3 7 -14 6 -11 0 -17 -5 -15 -9 3 -4 -6 -8 -20 -8
-18 0 -26 6 -27 18 0 10 -3 12 -6 5 -2 -7 -13 -13 -24 -13 -15 0 -19 -8 -20
-32 -1 -18 -1 -37 0 -41 1 -5 -3 -6 -9 -2 -5 3 -10 0 -10 -7 0 -7 -7 -2 -16
11 -15 21 -15 25 2 57 13 24 30 38 60 48 23 8 45 12 48 8 4 -3 1 9 -5 26 -6
17 -14 31 -17 31 -21 -3 -32 3 -32 16 0 12 4 13 19 5 11 -5 25 -10 31 -10z
m240 -70 c15 -35 7 -62 -15 -54 -12 5 -15 -3 -17 -42 -1 -27 -1 -66 0 -86 3
-45 -10 -48 -53 -12 l-30 25 27 24 c31 27 22 40 -24 37 -21 -2 -28 2 -28 15 1
27 35 63 59 63 12 0 24 7 26 15 3 8 7 22 10 30 7 25 32 17 45 -15z m1729 -79
c23 -45 22 -113 -1 -117 -10 -1 -22 4 -29 12 -15 18 -29 18 -29 0 0 -9 -8 -12
-24 -9 -14 3 -25 -1 -28 -9 -4 -10 3 -15 25 -16 37 -3 57 -18 57 -43 0 -14 -7
-19 -29 -19 -24 0 -28 -3 -24 -20 4 -16 2 -19 -11 -14 -9 3 -16 12 -16 20 0 7
-9 18 -20 24 -10 6 -17 16 -14 23 2 7 -7 19 -21 27 -26 14 -29 35 -4 35 9 0
13 10 11 28 -4 38 25 48 48 17 12 -16 23 -21 35 -16 17 6 17 7 0 26 -10 11
-25 20 -34 20 -11 0 -12 3 -3 12 9 9 18 4 40 -22 18 -20 34 -30 41 -25 9 5 7
12 -8 26 -12 11 -22 26 -22 34 -1 8 -2 21 -3 28 -7 40 40 25 63 -22z m-2869
-883 c0 -5 11 -13 25 -20 13 -6 21 -16 18 -22 -4 -6 0 -5 9 2 13 10 17 10 22
-5 8 -20 -21 -46 -42 -38 -7 2 -10 0 -7 -5 3 -5 8 -20 10 -32 3 -13 10 -25 16
-27 8 -2 7 -7 -2 -13 -11 -7 -11 -11 -2 -15 16 -6 -2 -43 -21 -43 -7 0 -25 -9
-40 -21 -23 -18 -26 -18 -26 -4 0 13 -3 15 -13 7 -7 -6 -17 -8 -23 -4 -15 10
-25 42 -13 42 6 0 8 4 5 9 -3 5 2 8 11 7 12 -1 17 7 17 29 1 19 8 33 22 40 11
5 19 16 16 23 -2 6 0 12 5 12 4 0 9 11 9 25 1 14 -3 25 -10 25 -6 0 -12 8 -12
18 0 10 6 19 13 19 7 0 13 -4 13 -9z"/>
<path d="M10780 10005 c0 -437 -3 -794 -7 -794 -27 4 -31 -3 -13 -21 19 -19
20 -33 20 -331 0 -306 0 -310 -20 -304 -24 8 -27 -10 -4 -19 9 -4 14 -12 10
-21 -3 -8 -9 -22 -12 -30 -4 -10 0 -15 10 -15 15 0 16 -28 16 -295 -1 -248 -4
-295 -16 -295 -8 0 -14 -4 -14 -9 0 -5 -3 -18 -6 -28 -5 -15 -4 -15 5 -3 8 11
11 12 11 2 0 -7 5 -10 10 -7 7 4 10 -112 10 -339 0 -323 -1 -346 -17 -346 -17
-1 -17 -1 -1 -14 17 -12 18 -59 15 -735 -1 -396 -6 -720 -10 -718 -5 1 -12 -5
-17 -14 -7 -13 -8 -25 -1 -58 1 -2 7 2 14 8 11 9 14 0 16 -47 l2 -58 -35 -1
c-20 -1 -42 -8 -51 -16 -19 -20 -19 -28 0 -21 8 4 22 1 29 -5 8 -7 22 -11 32
-9 18 3 29 -28 13 -38 -5 -3 -6 -11 -2 -17 12 -19 14 -47 4 -47 -6 0 -8 9 -6
20 3 13 -2 20 -12 20 -13 0 -13 3 -3 15 9 11 9 15 1 15 -6 0 -14 -6 -17 -13
-3 -8 -10 -14 -17 -14 -57 -3 -90 -14 -108 -37 -13 -16 -37 -29 -73 -37 -44
-10 -53 -15 -52 -33 1 -11 7 -26 15 -32 11 -8 11 -15 2 -32 -13 -24 -40 -29
-58 -11 -15 15 -58 7 -59 -11 -1 -22 36 -60 58 -60 10 0 24 -11 30 -25 6 -14
22 -28 35 -31 23 -6 28 -19 17 -48 -7 -19 -45 -21 -62 -4 -7 7 -12 8 -12 4 0
-5 -8 1 -17 12 -23 26 -68 36 -85 19 -7 -8 -18 -16 -24 -18 -22 -8 4 -44 60
-83 37 -25 62 -36 73 -32 15 6 15 8 3 17 -12 7 -11 10 8 15 12 4 22 10 22 15
0 12 -7 11 -30 -1 -25 -13 -35 14 -12 32 16 12 16 11 2 -7 -14 -18 -14 -19 1
-7 19 15 77 13 98 -2 11 -8 13 -8 7 2 -5 8 1 15 15 20 15 6 18 11 11 16 -7 4
-12 11 -12 16 0 13 31 5 41 -11 5 -9 9 -10 9 -2 0 6 -5 15 -10 18 -6 4 -7 12
-3 18 4 8 1 7 -9 -1 -9 -8 -19 -9 -22 -4 -8 13 20 19 72 16 23 -1 42 2 42 7 0
5 -9 9 -20 9 -11 0 -20 5 -20 11 0 6 10 8 23 5 19 -5 19 -5 -3 6 -14 7 -28 17
-32 23 -11 14 -10 1 2 -29 11 -31 6 -33 -17 -8 -22 23 -27 42 -10 42 9 0 8 3
-2 9 -21 14 -5 29 29 26 16 -1 27 1 24 6 -3 5 -10 7 -15 4 -5 -4 -9 -1 -9 4 0
15 13 14 36 -4 26 -20 40 -19 23 2 -12 15 -12 16 3 10 13 -4 16 -1 13 13 -2
11 4 24 13 30 10 5 12 10 5 10 -26 0 -12 15 15 16 l29 1 1 -131 2 -131 -43
-19 c-23 -11 -44 -22 -47 -25 -6 -8 -29 -21 -110 -68 -100 -57 -152 -102 -140
-122 29 -49 39 -56 70 -44 50 19 37 -10 -17 -40 -27 -14 -69 -43 -94 -64 -26
-21 -57 -46 -70 -55 -13 -9 -42 -31 -64 -47 -22 -17 -58 -43 -80 -58 -22 -15
-84 -64 -139 -108 -54 -44 -112 -89 -130 -101 -21 -15 -33 -31 -36 -55 -5 -35
-13 -40 -85 -54 -29 -6 -29 -7 -10 -21 12 -9 30 -12 48 -8 16 3 34 1 42 -6 8
-7 22 -10 30 -6 8 3 15 1 15 -4 0 -16 26 -12 41 6 10 12 23 14 54 10 38 -6 41
-5 52 23 8 23 21 32 54 42 24 6 77 23 117 37 67 23 75 24 89 9 15 -14 14 -19
-13 -49 -16 -19 -38 -50 -49 -71 -11 -20 -22 -37 -25 -37 -3 0 -26 -14 -49
-32 -54 -39 -106 -50 -163 -34 -45 13 -35 -16 19 -55 61 -43 153 -92 153 -81
0 5 -3 12 -7 16 -4 3 -8 12 -9 20 -1 9 12 11 51 8 32 -3 55 0 59 7 4 6 3 11
-2 11 -6 0 -12 6 -15 13 -3 8 5 14 22 15 36 3 151 61 151 77 0 6 9 22 20 35
11 13 20 28 20 35 0 13 127 158 144 164 6 2 17 11 25 20 7 9 6 4 -3 -11 -29
-50 -51 -83 -63 -96 -16 -16 -16 -22 -3 -22 11 0 74 61 145 140 l40 45 3
-2183 2 -2182 50 0 50 0 0 5400 0 5400 -50 0 -50 0 0 -795z"/>
<path d="M10079 10693 c0 -10 -2 -25 -4 -34 -2 -10 7 -21 23 -28 16 -8 22 -15
15 -22 -15 -15 -40 0 -53 32 -15 35 -30 38 -30 5 0 -13 -3 -31 -6 -39 -3 -9 3
-16 15 -20 16 -4 21 -13 21 -40 0 -22 6 -37 15 -41 20 -7 19 -32 -2 -41 -15
-5 -16 -4 -5 6 20 22 14 32 -18 26 -23 -5 -33 -1 -49 19 l-19 25 -26 -24 c-33
-30 -33 -37 0 -37 17 0 28 -6 31 -20 3 -11 11 -20 17 -20 6 0 28 -11 49 -25
38 -27 68 -26 46 1 -9 11 -7 14 15 14 16 0 25 -4 21 -10 -3 -5 0 -10 7 -11 7
0 21 -2 30 -4 9 -2 19 3 22 11 3 7 12 11 21 8 8 -3 12 -11 9 -18 -3 -6 2 -2
10 8 12 14 13 23 5 33 -9 9 -8 13 0 13 7 0 9 5 6 10 -4 6 -1 18 6 26 10 12 10
15 -2 12 -8 -2 -17 -7 -21 -13 -5 -6 -8 -5 -8 3 0 7 -4 10 -10 7 -5 -3 -10 -1
-10 4 0 6 10 11 23 11 28 1 55 21 50 38 -3 6 2 12 9 12 20 0 19 32 -3 60 l-19
25 0 -27 c0 -23 -5 -28 -24 -28 -15 0 -33 11 -45 26 -12 15 -21 23 -21 19 0
-4 -6 -2 -13 4 -8 6 -16 8 -19 6 -3 -3 -5 2 -5 12 0 37 -4 43 -28 43 -17 0
-25 -6 -26 -17z"/>
<path d="M6349 10573 c-1 -10 -1 -22 0 -27 1 -5 -8 -6 -19 -3 -17 4 -21 1 -18
-16 2 -12 9 -21 16 -19 8 1 11 -1 9 -5 -3 -5 0 -19 6 -33 5 -14 9 -38 8 -53
-2 -15 3 -35 10 -43 16 -19 10 -24 -37 -27 -27 -3 -40 -9 -42 -20 -2 -9 -7
-17 -12 -17 -5 0 -7 -6 -4 -14 3 -8 0 -17 -6 -21 -13 -8 -42 13 -35 25 3 4 -2
11 -10 14 -13 4 -14 2 -5 -15 20 -37 -11 -129 -43 -129 -21 0 -35 -20 -30 -41
3 -10 9 -19 13 -19 9 0 70 58 70 68 0 4 16 18 35 31 19 13 35 31 35 41 0 18
30 50 48 50 6 0 14 9 17 20 3 11 11 20 17 20 6 0 8 12 4 32 l-6 31 24 -26 c22
-23 26 -24 44 -11 14 9 19 21 15 31 -5 12 -3 14 8 8 12 -8 12 -6 0 8 -7 9 -17
15 -21 12 -5 -3 -11 -1 -14 3 -3 5 -17 7 -31 4 -20 -3 -25 0 -25 17 0 20 4 22
52 25 30 2 28 12 -12 55 -22 23 -40 47 -40 52 0 17 -20 9 -21 -8z"/>
<path d="M6396 10327 c9 -25 -14 -67 -37 -67 -14 0 -19 -5 -16 -13 3 -8 2 -18
-1 -23 -12 -17 -79 -54 -85 -47 -4 3 -7 -1 -7 -9 0 -9 -7 -21 -15 -28 -8 -7
-12 -16 -9 -21 3 -5 -2 -9 -11 -9 -21 0 -36 -43 -29 -80 9 -43 30 -38 52 13 6
15 28 37 47 48 19 12 35 23 35 26 0 2 -6 1 -12 -3 -8 -5 -7 -1 2 10 9 12 16
14 18 6 4 -12 5 -12 70 49 19 17 43 36 54 42 15 8 18 17 13 37 -4 15 -8 33 -9
41 -3 16 -34 41 -53 41 -7 0 -10 -6 -7 -13z"/>
<path d="M6942 10072 c-12 -2 -27 -13 -34 -25 -6 -12 -16 -27 -22 -33 -44 -46
-57 -74 -36 -74 6 0 10 4 10 10 0 5 9 14 21 21 30 16 48 -4 26 -28 -11 -12
-13 -23 -7 -33 5 -8 12 -11 16 -8 10 11 44 -10 44 -27 0 -19 39 -30 54 -15 8
8 7 15 -7 25 -10 7 -14 16 -9 19 13 8 52 -22 52 -41 0 -10 5 -13 18 -8 53 21
67 10 32 -25 -16 -16 -18 -25 -10 -45 14 -36 13 -38 -11 -53 -17 -11 -24 -11
-37 0 -15 12 -16 11 -3 -5 17 -21 1 -67 -24 -67 -9 0 -15 -9 -15 -25 0 -14 0
-28 0 -32 0 -5 4 -8 9 -8 5 0 26 -15 46 -33 30 -26 40 -30 52 -21 16 14 9 24
-38 47 -44 22 -48 61 -7 79 15 7 28 17 28 22 0 6 6 8 14 5 16 -6 51 39 42 54
-3 5 4 18 14 30 11 12 20 25 20 30 0 16 39 21 51 6 6 -8 8 -14 3 -15 -5 0 0
-4 11 -8 22 -9 45 -4 45 10 0 5 -7 9 -15 9 -8 0 -14 5 -12 11 1 6 -25 23 -58
37 -33 14 -63 30 -66 35 -11 16 -4 52 11 53 9 0 10 -1 2 -3 -15 -5 -6 -23 12
-23 20 0 27 52 10 78 -14 21 -42 33 -29 12 3 -5 -5 -15 -19 -21 -14 -7 -28
-20 -31 -31 -4 -10 -10 -18 -14 -18 -7 0 -74 75 -101 114 -10 14 -23 20 -38
18z"/>
<path d="M5036 9913 c-3 -4 -6 -28 -6 -54 0 -35 -6 -55 -23 -76 -35 -41 -42
-81 -20 -105 10 -11 17 -23 17 -27 -1 -3 2 -16 7 -29 5 -13 9 -32 9 -43 0 -21
10 -25 27 -8 8 8 14 6 22 -9 9 -17 14 -19 35 -9 21 10 22 15 14 40 -8 22 -7
32 7 47 10 11 24 20 31 20 7 0 15 4 19 10 8 13 -17 50 -34 50 -8 0 -11 7 -8
20 3 13 -2 25 -15 34 -22 15 -18 31 14 54 21 15 14 36 -9 28 -10 -4 -28 7 -48
28 -18 19 -35 32 -39 29z"/>
<path d="M5241 9558 c-11 -10 -25 -18 -30 -18 -5 0 -13 -9 -16 -20 -7 -21 -20
-26 -29 -11 -3 5 1 14 9 21 12 10 13 16 4 27 -10 11 -14 10 -25 -5 -17 -25
-14 -59 5 -58 10 1 16 -8 17 -23 1 -25 -16 -51 -35 -51 -8 0 -9 -15 -2 -63 0
-5 8 -2 16 7 9 8 22 13 30 10 10 -4 15 0 15 15 0 12 -5 21 -11 21 -5 0 -8 -4
-5 -9 3 -4 -7 -6 -21 -3 l-27 5 25 10 c13 6 27 9 32 9 4 -1 7 4 7 12 0 8 7 17
16 20 21 8 21 8 28 -10 3 -8 2 -13 -3 -10 -5 4 -4 -5 2 -18 8 -16 17 -22 27
-17 8 3 22 6 30 5 8 -1 20 -2 26 -3 11 -1 29 -46 26 -63 -4 -17 28 -15 33 3 4
10 11 19 16 19 6 0 8 4 5 9 -3 5 1 14 9 21 8 7 13 16 10 20 -3 4 18 31 47 59
44 45 48 58 15 52 -5 -1 -17 9 -27 21 -15 19 -22 21 -37 12 -10 -6 -18 -16
-18 -22 0 -7 -10 -19 -23 -28 -22 -15 -23 -14 -37 18 -8 18 -15 29 -15 23 0
-5 -9 -1 -18 11 -22 26 -46 26 -71 2z"/>
<path d="M6211 9460 c-18 -53 -15 -77 11 -76 18 1 23 -5 23 -26 1 -16 -3 -28
-9 -28 -5 0 -6 -3 -3 -7 4 -3 2 -12 -5 -20 -9 -11 -7 -12 8 -6 16 6 17 5 6 -9
-8 -10 -9 -18 -3 -22 6 -4 8 -13 5 -21 -4 -8 -11 -12 -16 -9 -13 8 0 -35 16
-55 9 -12 8 -13 -2 -7 -10 6 -13 3 -11 -10 2 -11 0 -24 -4 -31 -4 -6 -3 -14 3
-18 9 -6 79 56 81 72 4 41 22 68 40 58 3 -3 13 3 22 13 14 15 14 21 2 42 -8
14 -19 36 -26 50 -6 14 -16 35 -22 48 -8 17 -17 22 -34 19 -13 -2 -23 1 -23 7
0 6 -5 4 -10 -4 -8 -12 -10 -12 -10 5 0 11 -7 31 -14 44 l-13 24 -12 -33z"/>
<path d="M7270 8100 c-20 -3 -42 -10 -49 -15 -10 -6 -12 -4 -6 6 7 11 6 12 -7
2 -8 -7 -18 -10 -21 -6 -4 3 -7 1 -7 -5 0 -7 -8 -12 -18 -12 -22 0 -65 -38
-57 -50 3 -4 -3 -6 -13 -3 -12 3 -19 -1 -19 -11 0 -9 4 -16 9 -16 4 0 18 -11
30 -25 12 -14 31 -25 42 -26 12 0 15 -3 8 -6 -6 -2 -10 -9 -7 -13 3 -5 13 -6
22 -3 12 5 15 2 11 -8 -4 -10 1 -15 17 -17 34 -3 75 -20 75 -32 0 -6 5 -8 10
-5 6 3 10 2 10 -3 0 -10 84 -44 153 -62 26 -7 47 -15 47 -19 0 -3 13 -12 30
-19 32 -15 140 -116 140 -133 0 -5 6 -9 13 -8 28 3 48 -2 42 -11 -3 -6 5 -10
19 -10 14 0 29 -6 33 -13 14 -23 80 -58 97 -51 21 8 46 -13 46 -40 1 -19 2
-19 11 -3 6 9 15 15 20 11 6 -3 13 3 16 15 6 24 23 29 23 7 0 -8 5 -18 12 -22
8 -5 9 0 6 14 -4 12 -2 20 3 16 5 -3 9 -11 9 -18 0 -7 7 -13 15 -13 10 0 12 4
5 12 -8 9 1 38 11 36 2 0 14 2 26 5 19 5 21 10 12 25 -5 10 -6 20 -2 20 4 1
13 2 18 4 6 1 16 3 23 3 10 2 10 7 1 24 -10 18 -9 20 5 15 14 -5 16 -3 11 12
-3 11 0 21 9 24 8 3 14 15 13 26 0 11 -5 17 -10 14 -4 -3 -6 -11 -3 -19 3 -8
-1 -14 -9 -14 -9 0 -12 6 -8 17 5 13 2 15 -11 10 -11 -4 -15 -3 -11 4 4 6 13
8 20 5 7 -2 16 2 19 11 5 12 1 14 -18 9 -13 -3 -26 -3 -29 2 -2 4 -3 2 -1 -4
1 -6 -4 -11 -12 -11 -7 0 -11 4 -8 9 3 4 -2 8 -11 8 -9 0 -13 -5 -10 -10 15
-24 15 -57 0 -57 -18 0 -19 8 -2 27 10 12 9 12 -5 1 -26 -19 -78 -2 -78 27 0
12 -30 26 -50 23 -13 -2 -13 -1 0 8 15 11 14 12 -20 16 -35 4 -35 5 -15 21 19
15 19 15 -7 10 -15 -2 -32 -7 -38 -11 -6 -3 -10 4 -11 17 0 20 -1 20 -8 5 -9
-24 -14 -25 -35 -8 -11 9 -16 24 -13 38 3 19 2 21 -9 12 -11 -9 -14 -8 -14 2
0 11 -2 11 -10 -1 -8 -13 -11 -12 -16 6 -4 15 -12 20 -24 17 -10 -3 -21 0 -24
6 -4 5 -13 8 -21 5 -10 -4 -12 0 -8 16 4 16 0 23 -16 27 -11 3 -21 10 -21 15
0 6 -7 5 -15 -2 -13 -11 -15 -9 -12 8 2 12 6 25 10 28 15 15 6 23 -22 19 -19
-2 -31 2 -35 11 -3 8 -12 14 -21 14 -8 0 -15 7 -15 15 0 8 -4 15 -10 15 -5 0
-10 7 -10 16 0 11 -6 15 -20 11 -11 -3 -18 -1 -14 4 3 5 -19 9 -48 10 -29 1
-64 2 -78 3 -14 1 -41 -1 -60 -4z"/>
<path d="M10311 7946 c-10 -11 -10 -16 -2 -16 7 0 9 -4 6 -10 -3 -5 -2 -10 3
-10 6 0 13 -7 16 -16 5 -13 1 -15 -19 -12 -22 5 -25 3 -19 -16 4 -11 7 -27 7
-33 0 -7 4 -13 9 -13 4 0 8 5 8 11 0 6 7 3 16 -5 8 -9 13 -20 9 -26 -11 -19
18 -50 42 -44 29 8 32 -19 5 -38 -23 -16 -45 -55 -37 -68 3 -5 14 -7 25 -5 11
2 20 0 20 -6 0 -5 7 -9 15 -9 10 0 15 -10 15 -27 0 -26 3 -28 45 -30 27 -1 43
2 40 7 -4 6 -1 10 6 10 7 0 21 8 32 18 15 12 21 14 24 5 3 -7 11 -13 18 -13 8
0 16 -4 20 -9 3 -6 -3 -8 -14 -6 -11 2 -22 -3 -25 -10 -3 -9 0 -12 10 -8 7 3
14 1 14 -5 0 -12 -29 -26 -47 -23 -21 3 -14 -13 12 -32 24 -17 26 -17 47 3 32
30 32 87 0 95 -14 3 -20 10 -16 17 4 6 3 8 -4 4 -6 -3 -18 11 -29 34 -13 28
-23 38 -35 34 -24 -7 -50 44 -35 68 9 14 6 23 -13 44 -14 15 -18 23 -10 19 13
-8 13 -6 2 8 -8 9 -11 21 -7 27 3 5 -2 10 -12 10 -21 0 -55 35 -45 46 4 4 2 4
-5 0 -7 -4 -10 -13 -6 -21 11 -30 -14 -14 -32 19 -11 19 -22 33 -26 30 -4 -2
-9 1 -11 7 -2 7 -9 5 -17 -5z"/>
<path d="M6247 7883 c-20 -8 -37 -19 -37 -24 0 -5 -7 -9 -15 -9 -30 0 -93
-138 -100 -220 -6 -64 -13 -115 -26 -193 -6 -37 -8 -96 -5 -130 3 -34 5 -72 5
-84 1 -13 6 -23 12 -23 5 0 8 4 5 8 -2 4 0 14 5 22 7 11 8 9 6 -8 -2 -13 -10
-28 -18 -32 -10 -7 -9 -9 7 -8 24 2 24 4 25 115 1 144 44 276 114 354 20 22
34 51 39 77 3 23 11 42 16 42 7 0 7 -8 -1 -22 l-11 -23 21 23 c23 23 20 47 -5
38 -8 -3 -11 0 -7 10 3 7 10 14 15 14 7 0 7 4 0 13 -7 8 -6 18 4 31 28 39 7
51 -49 29z"/>
<path d="M7175 7750 c-3 -5 -11 -8 -18 -6 -7 1 -9 1 -4 -1 4 -3 4 -10 0 -16
-4 -6 0 -8 10 -4 9 3 21 -1 29 -11 9 -11 10 -14 1 -8 -8 4 -13 2 -13 -7 0 -9
10 -13 28 -12 23 2 82 -19 82 -29 0 -16 -192 -8 -220 9 -5 3 -7 0 -4 -9 6 -15
-11 -17 -33 -3 -7 5 -13 4 -13 -2 0 -6 -7 -8 -15 -5 -13 6 -20 -6 -16 -28 2
-13 -17 -9 -22 5 -4 9 -6 9 -6 0 -1 -7 10 -18 23 -25 14 -7 25 -17 25 -21 0
-4 9 -19 19 -32 15 -19 22 -21 32 -12 10 10 11 9 5 -3 -6 -12 -5 -13 5 -3 11
10 17 9 32 -4 10 -9 18 -22 18 -29 0 -19 35 -60 103 -121 13 -13 32 -39 41
-58 9 -19 19 -35 22 -35 3 0 2 5 -1 10 -3 6 0 10 7 10 8 0 14 -9 14 -19 0 -11
-3 -18 -7 -16 -23 15 -68 29 -94 29 -26 1 -30 -2 -30 -26 -1 -16 3 -28 7 -28
4 0 8 -4 8 -10 0 -14 -22 -8 -37 10 -11 13 -12 12 -6 -4 4 -13 3 -17 -4 -13
-7 5 -9 0 -6 -14 4 -16 8 -17 14 -7 5 7 9 10 10 6 8 -42 21 -68 30 -62 5 3 6
10 3 16 -4 6 -2 8 4 4 5 -3 12 0 15 6 2 7 4 1 3 -14 0 -14 -3 -26 -6 -25 -6 2
-10 -8 -10 -23 0 -7 7 -7 20 0 20 11 44 5 36 -9 -3 -4 0 -13 5 -21 7 -11 8 -7
5 12 -3 15 -8 33 -11 40 -4 7 2 2 13 -12 11 -13 18 -28 16 -32 -3 -4 5 -5 17
-3 15 3 19 0 16 -10 -3 -7 1 -16 9 -19 23 -9 27 -7 21 8 -6 15 17 16 30 1 4
-4 2 -5 -4 -1 -7 4 -13 3 -13 -3 0 -12 29 -21 55 -17 11 2 28 -1 37 -5 11 -6
19 -5 24 3 5 7 3 8 -6 3 -8 -5 -11 -4 -7 3 7 11 32 11 43 0 3 -4 12 -4 20 -1
10 4 12 0 8 -13 -4 -11 -3 -16 1 -11 5 4 22 -5 38 -20 17 -16 27 -22 23 -15
-5 7 2 15 17 21 14 6 29 16 33 23 6 11 5 11 -8 0 -19 -15 -71 -11 -74 7 -2 7
0 7 3 1 3 -8 9 -8 18 0 19 16 57 21 70 10 13 -11 54 29 48 47 -6 17 18 27 28
12 6 -10 9 -8 9 10 0 16 -4 22 -15 17 -8 -3 -15 -3 -15 0 0 2 10 8 23 13 18 7
23 18 25 49 2 32 -1 40 -18 45 -20 5 -28 27 -10 27 6 0 10 10 10 23 0 18 -2
19 -10 7 -8 -11 -9 -8 -6 15 2 17 5 32 5 34 1 2 8 -2 16 -9 9 -7 13 -21 10
-31 -3 -9 -1 -20 4 -24 7 -4 8 1 4 11 -4 12 -3 15 5 10 18 -11 15 -4 -13 34
-16 22 -22 37 -15 44 6 6 5 15 -3 25 -9 12 -9 13 1 7 8 -5 12 -1 12 13 0 11
-5 23 -11 26 -6 4 -8 13 -5 21 3 7 1 16 -3 18 -5 3 -7 22 -5 41 2 31 0 35 -17
30 -11 -4 -19 -2 -19 4 0 6 5 11 10 11 6 0 10 4 10 9 0 4 -12 8 -27 7 -20 -1
-28 4 -27 16 1 11 -4 14 -14 11 -11 -5 -13 -3 -7 7 5 8 4 11 -3 6 -6 -3 -23 5
-37 18 -15 14 -40 28 -56 31 -16 4 -29 11 -29 17 0 6 -3 8 -7 5 -3 -4 -14 0
-23 8 -9 8 -41 20 -71 26 -75 15 -227 21 -234 9z"/>
<path d="M10110 7455 c-6 -8 -9 -19 -6 -24 4 -5 -2 -25 -13 -44 -18 -32 -18
-35 -2 -63 18 -32 42 -54 53 -48 4 2 9 0 13 -6 3 -5 11 -10 16 -10 6 0 7 6 3
13 -5 8 -2 7 9 -2 10 -8 20 -11 24 -7 3 3 1 6 -6 6 -7 0 -9 5 -6 10 3 6 -2 10
-12 10 -14 0 -15 2 -4 9 12 8 12 12 -2 26 -10 9 -16 24 -16 33 1 15 2 15 6 -1
2 -9 8 -15 13 -12 5 3 11 -4 15 -15 5 -15 13 -19 30 -16 26 5 58 -23 60 -53 1
-13 -3 -17 -14 -13 -14 5 -14 4 -2 -12 14 -16 15 -16 27 6 7 12 10 27 6 32 -3
6 3 6 14 2 40 -17 49 -16 62 4 8 14 9 20 1 20 -6 0 -9 6 -6 14 3 8 -1 17 -9
20 -9 3 -12 10 -9 16 3 5 1 10 -5 10 -6 0 -8 5 -4 12 5 8 2 9 -9 5 -10 -3 -17
-2 -17 4 0 6 -4 8 -9 4 -5 -3 -13 0 -17 6 -4 8 -3 9 4 5 7 -4 12 -3 12 3 0 13
-45 25 -64 18 -8 -3 -20 0 -26 8 -6 7 -21 12 -32 10 -13 -3 -27 3 -35 15 -17
24 -26 25 -43 5z"/>
<path d="M8576 7275 c-12 -19 -13 -25 -3 -25 7 0 13 -8 14 -18 1 -12 -6 -18
-23 -20 -13 -1 -24 3 -24 8 0 5 8 7 18 3 18 -7 17 -5 -12 17 -11 8 -17 10 -13
3 4 -6 3 -15 -3 -18 -6 -4 -8 -16 -4 -27 4 -13 2 -18 -4 -14 -5 3 -12 -1 -16
-9 -4 -10 1 -15 17 -16 22 -1 22 -1 -1 -7 -13 -4 -22 -11 -22 -17 1 -5 7 -9
13 -7 6 2 5 -4 -3 -12 -15 -19 -24 -21 -14 -4 5 7 3 8 -5 4 -7 -5 -10 -15 -7
-23 3 -8 2 -12 -3 -9 -5 3 -14 -1 -21 -9 -11 -13 -10 -14 4 -9 13 5 15 2 10
-12 -6 -17 -5 -17 9 1 10 12 16 15 17 7 0 -7 5 -10 12 -6 7 4 8 3 4 -4 -4 -7
6 -26 23 -44 34 -36 39 -56 16 -64 -8 -4 -12 -10 -9 -15 3 -5 -3 -6 -12 -2
-13 5 -15 3 -9 -8 8 -12 6 -12 -9 0 -15 13 -19 13 -27 0 -5 -8 -9 -9 -9 -4 0
6 -14 11 -30 12 -17 1 -30 -3 -30 -9 0 -7 -7 -3 -16 8 -8 10 -13 12 -9 4 4 -8
-1 -6 -11 5 -16 20 -16 20 -11 -5 6 -24 5 -24 -8 -6 -15 20 -15 20 -31 0 -8
-10 -12 -12 -8 -4 7 13 6 13 -9 1 -10 -8 -29 -15 -42 -15 -14 -1 -30 -9 -37
-17 -14 -17 -73 -45 -64 -31 3 5 -1 17 -8 28 -8 10 -12 24 -9 31 3 7 0 13 -6
13 -6 0 -11 5 -11 11 0 5 6 7 13 3 9 -5 9 -4 0 6 -9 10 -10 17 -2 27 19 22 1
14 -24 -11 -14 -14 -28 -22 -31 -19 -3 4 -6 1 -6 -5 0 -15 13 -15 28 0 9 9 12
8 12 -5 0 -9 6 -17 13 -17 9 0 9 -2 -1 -9 -17 -10 -15 -23 4 -34 8 -4 14 -13
14 -20 0 -8 -3 -8 -8 -2 -6 10 -14 11 -39 6 -4 0 -2 -6 4 -12 8 -8 6 -16 -9
-31 -13 -13 -18 -29 -15 -44 2 -13 0 -21 -4 -18 -5 3 -9 0 -9 -6 0 -6 -4 -8
-10 -5 -7 4 -7 -3 0 -20 13 -34 13 -35 -7 -28 -13 5 -15 3 -8 -13 4 -10 8 -27
10 -38 1 -10 11 -23 23 -30 11 -6 22 -15 23 -21 1 -5 14 -29 30 -52 16 -23 29
-48 29 -55 0 -28 68 -143 91 -155 14 -7 49 -15 79 -18 30 -4 57 -8 60 -10 3
-2 12 0 18 4 10 6 9 11 -4 22 -12 9 -15 10 -10 2 4 -7 2 -13 -3 -13 -13 0 -14
13 -3 24 4 4 8 16 8 27 3 38 4 41 20 35 8 -3 12 -2 9 4 -3 6 -14 10 -23 11
-11 0 -12 2 -4 6 6 2 10 8 7 13 -6 9 42 6 67 -5 10 -4 15 -11 12 -16 -3 -5 -2
-9 3 -8 4 1 22 -3 38 -10 17 -7 43 -17 59 -22 25 -7 28 -6 23 11 -4 17 0 20
35 20 52 0 75 -14 83 -49 6 -27 9 -29 35 -21 16 4 30 6 33 4 6 -6 2 59 -4 71
-3 6 -5 29 -4 53 1 23 -3 42 -8 42 -5 0 -3 8 4 17 10 11 10 14 2 9 -7 -4 -13
-2 -13 3 0 18 18 13 33 -9 8 -11 17 -17 21 -13 4 4 4 0 0 -10 -7 -18 3 -22 25
-8 8 5 10 14 6 22 -6 9 -4 11 8 6 11 -4 15 0 14 14 -1 10 -5 19 -10 19 -5 0
-5 9 -2 20 4 12 2 20 -5 20 -6 0 -8 4 -5 10 3 5 -4 23 -16 39 -12 16 -19 34
-15 39 3 6 1 14 -5 18 -8 5 -9 3 -4 -6 5 -9 4 -11 -3 -6 -7 4 -12 14 -12 22 0
8 -4 14 -9 14 -6 0 -18 13 -27 29 -10 17 -21 28 -26 25 -4 -3 -8 4 -8 15 0 15
-4 19 -17 14 -10 -4 -14 -2 -9 5 3 6 -3 13 -14 17 -11 3 -20 10 -20 15 0 5 -3
16 -7 26 -6 16 -4 16 23 -3 16 -11 41 -23 55 -26 25 -6 58 -31 109 -83 48 -48
61 -66 63 -84 1 -10 5 -16 9 -14 4 3 8 -4 8 -16 0 -13 5 -20 13 -17 6 2 18 -3
25 -12 8 -9 11 -11 8 -4 -4 7 1 11 14 10 11 -1 20 -5 20 -9 0 -4 7 -8 15 -8
21 0 46 54 51 112 2 27 6 54 10 59 9 15 -13 10 -26 -6 -13 -16 -35 -21 -26 -6
3 5 -1 11 -9 15 -8 3 -15 10 -15 16 0 6 4 8 10 5 6 -3 7 1 4 9 -3 9 -9 14 -13
12 -7 -5 -33 41 -45 77 -3 9 -13 20 -21 23 -16 7 -78 64 -69 64 3 0 -1 7 -10
15 -8 8 -20 15 -27 15 -17 0 -78 65 -82 87 -4 27 -14 40 -36 46 -15 3 -18 1
-14 -12 5 -12 3 -13 -6 -5 -9 8 -10 18 -3 30 12 24 5 44 -15 44 -9 0 -13 6
-10 15 4 8 2 17 -3 20 -4 3 -10 -1 -13 -7 -3 -10 -7 -10 -19 0 -9 7 -20 11
-24 10 -8 -3 -14 4 -14 17 0 3 9 1 19 -5 14 -7 22 -7 27 2 4 7 3 8 -4 4 -7 -4
-12 -2 -12 5 0 7 -10 9 -24 7 -17 -4 -23 -1 -19 9 8 21 -3 15 -21 -12z"/>
<path d="M10540 7032 c0 -6 -7 -9 -15 -6 -25 10 -65 -4 -59 -21 4 -8 9 -13 13
-10 4 2 8 -2 8 -10 0 -8 -4 -12 -9 -9 -4 3 -8 1 -8 -5 0 -5 -8 -12 -18 -15
-10 -4 -19 -13 -19 -20 0 -8 8 -13 19 -11 10 2 18 0 18 -6 0 -5 -4 -9 -8 -9
-4 0 -9 -10 -9 -22 -2 -16 0 -19 6 -10 6 10 10 8 14 -8 4 -17 2 -20 -10 -16
-13 5 -14 4 -3 -9 7 -8 9 -15 4 -15 -4 0 -3 -5 4 -12 7 -7 12 -20 12 -29 0
-10 4 -20 9 -23 5 -4 8 5 7 19 -2 14 1 22 7 18 5 -3 13 1 18 8 8 12 10 12 18
-1 13 -18 5 -30 -20 -30 -11 0 -18 -4 -14 -9 3 -6 -2 -14 -11 -19 -15 -8 -15
-10 0 -15 11 -5 15 -3 10 5 -4 7 -3 8 4 4 7 -4 12 -14 12 -22 0 -18 9 -18 32
3 14 13 18 13 18 2 0 -11 2 -11 11 1 9 13 10 13 6 0 -2 -8 -12 -14 -21 -12
-14 3 -15 0 -4 -17 6 -11 15 -18 19 -15 17 10 1 -27 -16 -40 -17 -12 -24 -12
-46 0 -15 7 -29 23 -32 34 -3 12 -11 20 -19 19 -24 -3 -53 2 -40 8 20 8 14 20
-13 25 -20 4 -23 3 -14 -8 9 -11 8 -14 -5 -14 -10 0 -14 -5 -10 -11 4 -7 1
-10 -6 -7 -15 5 -23 38 -9 38 5 0 9 6 9 14 0 17 -41 18 -52 1 -4 -5 -8 0 -8
12 0 12 -3 24 -8 27 -10 6 -43 -19 -35 -27 12 -13 -8 -7 -22 6 -42 37 -42 37
-67 13 -38 -38 -71 -81 -67 -86 2 -3 -6 -6 -18 -8 -18 -3 -21 -10 -21 -52 l-1
-49 35 2 c19 1 34 7 34 12 0 12 20 -16 20 -28 0 -5 -4 -6 -9 -3 -5 3 -8 -2 -7
-12 1 -18 41 -62 57 -62 5 0 9 -6 9 -14 0 -11 39 -31 46 -23 14 18 12 49 -5
66 -12 12 -21 26 -21 32 0 6 -9 9 -20 6 -19 -5 -22 -2 -24 26 -1 6 -5 15 -11
19 -6 4 -2 8 8 8 14 0 17 -5 12 -20 -3 -11 -2 -20 3 -20 6 0 9 11 7 25 -1 14
2 26 6 26 19 3 25 5 44 16 18 11 18 12 3 13 -10 0 -18 -5 -18 -12 0 -6 -3 -8
-6 -5 -4 3 -14 2 -24 -3 -27 -15 -59 13 -52 46 4 24 6 25 17 11 7 -9 16 -13
21 -9 5 4 0 -4 -11 -16 l-20 -24 27 13 c15 6 25 16 22 20 -3 5 0 9 6 9 6 0 8
6 4 13 -4 6 10 -5 32 -26 23 -22 45 -35 54 -32 8 3 12 3 8 0 -3 -4 1 -15 9
-25 18 -20 41 -16 61 12 20 28 39 22 59 -19 15 -32 22 -38 47 -35 16 2 36 -4
46 -13 28 -26 66 -3 67 41 0 18 -2 32 -6 30 -4 -3 -13 -1 -20 4 -10 6 -8 10 9
15 16 5 20 12 17 27 -3 11 2 27 12 37 13 13 15 20 5 29 -14 13 -24 5 -24 -20
0 -10 -4 -18 -9 -18 -5 0 -5 15 1 35 7 20 16 32 22 28 7 -4 7 -2 -1 8 -6 8
-11 17 -10 21 1 3 -2 10 -7 15 -5 5 -6 3 -2 -4 4 -7 3 -13 -1 -13 -14 0 -32
58 -25 82 4 17 2 20 -11 15 -11 -4 -17 -1 -18 8 -1 8 -2 21 -3 28 -1 6 2 18 7
25 6 8 5 18 -4 30 -11 14 -10 13 9 -2 12 -11 22 -16 22 -11 0 4 7 2 15 -5 8
-7 15 -8 15 -3 0 5 -12 15 -26 21 -14 7 -23 15 -20 20 2 4 -2 16 -10 27 -8 10
-14 14 -14 7z"/>
<path d="M6017 6744 c-3 -4 -75 -10 -160 -15 -154 -8 -223 -20 -371 -66 -166
-52 -369 -161 -460 -248 -32 -30 -62 -55 -66 -55 -10 0 -101 50 -120 66 -46
38 -285 43 -430 9 -125 -30 -282 -97 -396 -170 -83 -53 -249 -224 -318 -328
-87 -131 -209 -359 -246 -458 -14 -39 -46 -85 -105 -154 -47 -54 -85 -106 -85
-116 0 -11 11 -47 24 -81 14 -35 39 -110 57 -168 18 -58 41 -123 51 -145 22
-50 23 -108 2 -126 -26 -21 -44 -66 -44 -109 0 -22 4 -40 8 -40 4 0 38 29 76
65 37 36 70 65 72 65 2 0 12 7 22 15 39 35 129 101 152 113 32 16 65 37 315
209 39 26 95 61 125 77 30 17 61 36 68 43 7 7 17 13 22 13 8 0 92 56 205 136
81 58 141 114 206 197 36 44 66 74 71 69 5 -5 10 -29 11 -53 2 -35 -1 -44 -14
-43 -10 1 -16 -6 -15 -20 1 -13 -8 -25 -21 -31 -12 -5 -27 -21 -33 -35 -13
-29 -76 -100 -90 -100 -5 0 -13 -6 -17 -13 -12 -20 -230 -165 -323 -216 -25
-13 -67 -41 -95 -61 -27 -20 -82 -56 -121 -79 -40 -23 -80 -51 -89 -61 -10
-11 -22 -20 -26 -20 -4 0 -28 -13 -52 -30 -25 -16 -48 -30 -52 -30 -4 0 -41
-26 -82 -57 -41 -32 -90 -70 -109 -85 -20 -15 -65 -56 -101 -92 -36 -37 -69
-66 -73 -66 -13 0 -21 -32 -12 -44 5 -6 26 -49 47 -96 72 -162 84 -186 131
-240 25 -30 53 -64 62 -75 10 -11 38 -51 64 -90 26 -38 74 -110 107 -159 56
-84 75 -122 115 -241 17 -49 92 -175 105 -175 3 0 17 10 31 23 14 12 39 33 55
45 17 13 66 58 111 100 44 42 106 100 137 128 32 29 111 103 175 165 65 63
190 174 279 247 90 73 194 163 231 200 158 154 230 220 275 252 41 29 47 38
48 69 1 83 85 148 181 142 32 -2 76 -50 83 -90 12 -71 -3 -111 -63 -169 -45
-44 -59 -53 -85 -50 -49 5 -42 24 15 37 64 14 94 36 104 74 l7 29 -29 -15
c-16 -8 -49 -20 -74 -27 -100 -26 -181 -86 -382 -280 -37 -36 -73 -71 -80 -77
-7 -7 -19 -18 -26 -25 -53 -51 -72 -68 -80 -68 -5 0 -18 -10 -30 -22 -12 -13
-34 -33 -49 -45 -134 -108 -196 -165 -316 -285 -75 -76 -142 -138 -147 -138
-6 0 -10 -7 -10 -15 0 -8 -4 -15 -10 -15 -9 0 -102 -82 -161 -142 -15 -16 -29
-28 -32 -28 -3 0 -19 -12 -34 -27 -16 -16 -53 -50 -81 -77 -29 -27 -52 -53
-52 -58 0 -11 30 10 43 30 15 22 35 13 88 -43 30 -30 100 -87 157 -127 57 -40
138 -100 179 -133 98 -78 124 -94 130 -77 7 18 31 14 43 -7 5 -11 27 -40 48
-65 256 -305 366 -413 481 -474 65 -35 210 -78 221 -65 4 4 54 76 112 158 189
272 337 464 438 566 74 76 212 177 381 281 35 22 179 81 264 108 39 12 102 33
140 46 39 12 88 27 110 33 22 5 76 19 120 31 185 49 389 83 490 83 88 0 205
-17 257 -38 24 -10 34 36 18 87 -14 49 -109 145 -154 156 -54 14 -43 32 19 32
51 0 68 -6 157 -57 123 -69 260 -174 315 -239 50 -61 101 -153 120 -219 19
-62 31 -77 54 -70 11 4 19 2 19 -4 0 -6 11 -4 27 4 15 8 29 12 31 10 7 -7 -9
-25 -23 -25 -7 0 -16 -7 -19 -16 -3 -8 -10 -12 -16 -9 -5 3 -10 1 -10 -4 0
-15 0 -15 57 17 62 34 103 67 103 82 0 6 -4 9 -9 6 -17 -11 -21 39 -4 54 15
14 16 13 4 -2 -10 -14 -9 -16 8 -11 12 3 18 12 16 23 -2 13 1 17 10 13 15 -5
47 20 43 34 -4 12 45 58 58 55 7 -1 14 4 18 13 6 17 26 20 26 4 0 -5 -4 -7
-10 -4 -5 3 -10 2 -10 -4 0 -38 81 16 180 120 19 20 73 61 120 90 93 57 120
78 120 90 0 13 -39 6 -44 -8 -3 -7 -10 -13 -16 -13 -5 0 -2 9 7 19 9 11 21 17
26 14 7 -4 8 1 3 13 -4 10 -4 15 0 12 11 -12 37 22 38 52 1 25 3 27 21 17 18
-9 19 -9 6 6 -12 15 -11 17 3 17 10 0 14 5 11 10 -3 6 2 10 12 10 24 1 63 34
63 55 0 9 4 14 9 11 5 -3 7 -15 4 -26 -3 -11 0 -20 6 -20 12 0 15 10 31 130
19 131 4 213 -83 460 -54 154 -109 232 -339 472 -86 90 -180 192 -209 228 -72
86 -92 103 -174 146 -38 20 -85 48 -103 61 l-32 24 -41 -32 c-22 -17 -38 -36
-36 -42 2 -6 37 -28 79 -49 43 -22 94 -58 121 -86 25 -26 63 -65 84 -87 61
-62 211 -186 288 -236 39 -26 87 -64 107 -85 146 -155 154 -168 182 -294 9
-41 23 -88 31 -103 24 -46 55 -171 55 -220 0 -26 -7 -64 -16 -85 -8 -20 -22
-73 -30 -117 -9 -44 -20 -86 -26 -92 -24 -30 -208 -3 -350 49 -30 12 -34 16
-21 24 15 9 13 18 -10 85 -64 180 -87 245 -96 264 -14 30 -68 176 -112 305
-22 63 -48 138 -59 165 -10 28 -31 89 -46 137 -22 70 -34 93 -62 115 -19 15
-39 33 -46 38 -6 6 -25 15 -42 21 -28 10 -31 9 -29 -5 2 -9 4 -20 4 -25 1 -4
10 -6 20 -3 14 3 18 1 14 -9 -3 -8 0 -14 6 -14 6 0 11 -10 11 -22 -1 -22 -1
-22 -15 -4 -8 11 -18 16 -22 12 -5 -4 2 -16 15 -26 12 -10 20 -25 16 -33 -3
-8 -1 -18 5 -22 6 -3 11 1 11 9 0 9 6 15 13 14 14 -3 31 -37 28 -57 -1 -7 2
-10 8 -6 7 4 8 0 5 -10 -4 -10 1 -21 12 -30 11 -7 19 -17 20 -22 0 -4 9 -26
19 -48 28 -62 45 -108 45 -128 0 -10 14 -50 30 -89 17 -38 30 -77 30 -85 0 -8
14 -44 30 -80 17 -35 30 -67 30 -71 0 -4 14 -43 31 -87 17 -44 39 -105 51
-135 11 -30 23 -64 28 -75 5 -11 13 -34 18 -52 10 -29 9 -31 -11 -26 -12 3
-35 7 -52 10 -16 3 -33 10 -36 15 -3 5 -19 11 -35 14 -16 3 -42 9 -59 15 -158
51 -189 61 -204 69 -14 7 -108 33 -206 56 -16 4 -34 8 -40 10 -5 1 -57 18
-115 36 -58 19 -134 43 -170 52 -36 10 -112 34 -170 53 -58 19 -125 40 -150
47 -51 15 -146 48 -270 96 -175 66 -402 140 -490 160 -25 5 -65 14 -90 20 -73
17 -80 19 -193 40 -59 11 -112 22 -118 25 -10 7 -158 46 -266 71 -80 19 -94
38 -35 47 20 4 71 16 112 27 76 22 230 59 351 85 37 8 101 17 142 21 64 5 79
4 93 -11 9 -9 25 -14 35 -12 11 3 19 1 19 -3 0 -4 12 -12 28 -18 26 -9 33 -8
79 16 18 9 22 8 27 -12 8 -32 72 -43 124 -20 39 17 55 20 138 28 59 5 94 20
94 41 0 8 8 18 17 23 13 8 10 11 -18 18 -45 10 -62 11 -75 2 -10 -7 -71 16
-84 31 -7 9 -41 29 -70 43 -14 7 -27 13 -28 14 -2 1 4 19 14 39 12 27 14 39 6
47 -7 7 -15 8 -19 3 -5 -4 -2 -10 5 -12 13 -5 17 -23 4 -23 -12 0 -30 42 -25
58 3 6 9 10 14 6 5 -3 9 1 9 10 0 8 -3 16 -7 19 -5 2 -2 2 5 0 15 -3 53 15 64
31 11 16 9 46 -3 46 -5 0 -7 -5 -3 -12 4 -7 3 -8 -4 -4 -7 4 -12 11 -12 17 0
16 28 10 40 -8 10 -16 10 -16 6 2 -3 11 -1 27 4 35 8 12 10 10 10 -10 0 -20 2
-22 10 -10 8 12 10 10 7 -10 -3 -32 -16 -52 -28 -45 -5 3 -6 -1 -3 -9 7 -18
24 -22 24 -6 0 5 7 7 16 3 13 -5 15 -2 9 15 -7 24 4 29 24 10 10 -11 12 -10 9
2 -2 8 3 14 10 12 6 -1 11 1 11 5 -3 21 3 33 17 33 10 0 14 7 12 23 -2 12 -9
21 -17 19 -8 -2 -11 3 -8 11 4 11 -2 14 -24 12 -17 -1 -28 0 -25 3 3 3 -2 11
-12 19 -10 9 -11 11 -2 7 13 -7 13 -6 1 10 -9 11 -17 13 -21 6 -4 -7 -12 -5
-21 6 -12 16 -12 17 1 9 8 -4 6 1 -5 12 -11 12 -22 21 -25 21 -22 0 -30 3 -25
11 5 9 -19 21 -38 20 -5 0 -17 9 -26 20 -10 12 -25 21 -32 21 -12 0 -12 2 -1
9 10 6 8 10 -10 16 -12 4 -27 8 -33 9 -5 1 -9 7 -8 12 1 6 -11 10 -27 9 -16
-1 -27 2 -24 7 7 10 -14 38 -28 38 -5 0 -6 -5 -2 -11 3 -6 -1 -10 -12 -9 -32
4 -42 1 -47 -14 -3 -8 1 -17 9 -20 7 -3 13 -2 13 2 -3 20 2 32 11 27 6 -4 8
-11 5 -16 -4 -5 0 -9 7 -9 9 0 10 -3 2 -8 -12 -8 -4 -43 10 -44 5 0 13 6 17
14 6 9 8 6 6 -10 -4 -29 -21 -40 -52 -34 -16 3 -22 9 -19 21 3 9 -1 5 -9 -9
-9 -14 -12 -29 -9 -35 12 -20 8 -45 -7 -46 -9 -1 -26 -3 -38 -4 -12 -1 -20 2
-17 7 3 4 10 5 16 2 7 -5 8 -2 3 6 -5 9 -14 5 -32 -14 -25 -28 -44 -36 -23
-11 15 18 13 20 -17 29 -12 4 -24 2 -27 -3 -4 -6 -18 -6 -36 -1 -16 5 -29 5
-29 2 5 -33 -38 -37 -71 -7 -11 10 -20 14 -20 9 0 -5 -9 -10 -20 -10 -11 0
-20 4 -20 9 0 4 -4 5 -10 2 -5 -3 -10 -1 -10 4 0 6 5 11 12 11 6 0 8 3 5 6 -4
4 -13 2 -20 -5 -20 -16 -41 11 -35 43 3 14 2 25 -1 24 -20 -2 -27 5 -29 29 -1
15 -7 30 -13 34 -7 4 -9 16 -6 28 3 11 -1 25 -8 31 -8 6 -16 29 -20 51 -4 22
-12 45 -19 52 -7 6 -17 30 -24 52 -35 124 -43 152 -47 170 -21 88 -26 115 -31
150 -4 22 -10 48 -16 58 -5 10 -7 26 -4 35 4 10 0 27 -8 38 -14 18 -15 18 -22
-13 -13 -64 -115 -149 -262 -220 -64 -31 -128 -68 -143 -82 -14 -14 -39 -33
-55 -41 -16 -8 -35 -21 -42 -28 -8 -7 -17 -10 -22 -7 -8 5 -100 -90 -100 -105
0 -4 -3 -10 -7 -12 -5 -1 -24 -26 -43 -55 -29 -44 -38 -51 -57 -46 -13 3 -30
0 -38 -7 -9 -7 -18 -10 -22 -6 -3 3 -1 6 6 6 7 0 9 5 5 12 -14 22 -11 45 4 44
8 -1 17 5 19 12 3 7 -1 10 -10 6 -8 -3 -18 0 -23 7 -4 8 -3 10 4 5 7 -4 12 -2
12 3 0 6 -6 11 -12 11 -10 0 -10 2 -1 8 13 8 33 56 32 75 0 7 -5 1 -11 -13 -6
-14 -10 -28 -10 -32 4 -16 -15 -7 -34 15 -10 12 -12 16 -4 10 18 -17 27 -16
27 2 0 8 -4 12 -9 9 -4 -3 -8 -1 -8 4 0 5 -7 9 -15 9 -9 0 -15 -10 -15 -24 0
-12 -5 -23 -11 -23 -5 0 -7 -5 -4 -11 4 -6 -1 -16 -11 -24 -11 -7 -16 -17 -12
-21 4 -4 3 -13 -2 -20 -14 -15 -27 -95 -20 -114 1 -3 3 -12 5 -20 2 -8 7 -26
10 -40 6 -24 6 -24 -9 -6 -9 11 -16 29 -16 41 0 34 -12 37 -27 8 -17 -33 -3
-108 28 -146 22 -29 26 -74 11 -147 -6 -30 -10 -62 -10 -70 1 -21 -10 -71 -17
-78 -3 -3 -5 -1 -5 5 0 5 -8 20 -19 32 l-19 21 -12 -47 c-7 -27 -14 -61 -16
-78 -5 -41 -54 -155 -66 -155 -6 0 -8 12 -4 30 3 17 8 67 11 113 3 45 12 145
20 222 8 77 19 197 25 267 7 69 15 141 20 160 39 157 84 264 126 297 16 12 40
43 54 69 14 26 29 47 35 47 20 0 17 -88 -5 -126 -11 -20 -20 -49 -20 -63 0
-83 -2 -77 20 -59 21 18 28 39 9 27 -7 -4 -10 -1 -7 7 3 8 10 13 15 12 5 -1
10 8 11 20 4 66 9 85 32 117 14 19 24 37 22 40 -1 3 3 6 8 6 6 1 15 2 21 3 5
0 7 6 4 11 -3 6 1 13 9 16 9 3 13 10 10 15 -3 5 0 9 5 9 6 0 11 6 12 13 0 6
27 35 61 62 33 28 69 58 79 68 11 9 23 17 27 17 5 0 19 11 31 24 13 14 37 30
54 37 18 7 43 20 57 29 34 22 143 65 215 84 66 17 95 9 95 -27 0 -18 2 -19 10
-7 5 8 10 11 10 6 0 -6 6 -1 14 9 8 11 12 24 9 30 -2 7 5 36 16 66 12 30 22
67 23 82 1 15 6 27 11 27 5 0 7 6 4 14 -3 7 0 19 6 25 6 6 9 12 6 14 -9 9 -56
16 -62 11z m-62 -765 c-4 -5 1 -19 11 -30 13 -15 14 -19 3 -20 -8 0 -4 -4 9
-9 20 -9 21 -12 11 -32 -12 -22 -11 -22 6 -8 17 14 18 14 5 -10 -13 -24 -12
-24 5 -10 16 14 17 13 11 -8 -6 -17 -4 -21 8 -16 12 5 15 2 10 -10 -5 -12 -2
-15 10 -10 9 3 16 2 16 -3 0 -20 -14 -22 -32 -6 -10 9 -21 13 -26 9 -4 -4 2
-14 12 -22 11 -8 14 -14 7 -14 -7 0 -10 -4 -7 -9 4 -5 1 -11 -6 -13 -7 -3 -2
-7 10 -10 15 -4 20 -2 16 5 -5 8 -4 9 4 2 6 -5 12 -23 13 -40 2 -16 7 -35 12
-42 5 -7 6 -22 2 -34 -5 -14 -3 -19 3 -15 7 4 9 -2 6 -16 -3 -13 -7 -57 -8
-99 -2 -42 -6 -81 -10 -87 -4 -7 -2 -12 4 -12 6 0 9 -4 6 -9 -4 -5 -1 -11 6
-13 9 -3 8 -9 -4 -21 -9 -9 -21 -17 -27 -17 -6 0 -7 -7 -4 -17 4 -10 2 -14 -4
-10 -15 10 -73 -3 -70 -15 1 -6 -4 -13 -12 -16 -8 -2 -11 0 -7 6 4 6 -2 8 -15
5 -11 -3 -18 -11 -16 -18 3 -6 -1 -12 -9 -12 -8 0 -14 4 -14 9 0 5 -9 4 -20
-2 -15 -8 -20 -8 -20 2 0 9 -3 9 -10 -2 -5 -8 -10 -12 -10 -8 0 3 -3 14 -6 22
-5 12 -2 15 10 10 9 -3 16 -1 16 6 0 6 -4 8 -10 5 -14 -8 -13 8 1 22 9 9 8 16
-5 28 -15 15 -16 15 -16 -2 0 -15 -2 -16 -10 -3 -6 9 -6 18 0 24 6 6 10 15 10
20 0 6 -5 4 -10 -4 -8 -13 -10 -13 -10 -1 0 11 -3 12 -12 3 -8 -8 -8 -15 0
-25 7 -8 9 -17 5 -20 -3 -4 -2 -7 3 -7 5 0 9 -11 9 -25 0 -17 -4 -24 -13 -20
-8 3 -16 5 -18 5 -2 0 -4 5 -4 11 0 5 4 7 10 4 6 -4 7 1 3 11 -5 15 -9 14 -30
-10 -13 -15 -23 -23 -23 -18 0 5 7 15 15 22 8 7 13 16 10 20 -3 5 1 10 7 13
10 3 8 9 -4 24 -10 11 -18 23 -18 28 0 4 8 1 18 -6 15 -13 16 -12 3 4 -10 13
-17 15 -27 6 -8 -6 -11 -15 -8 -20 3 -5 0 -9 -5 -9 -6 0 -11 -7 -11 -16 0 -9
-5 -12 -12 -8 -7 4 -8 3 -4 -5 4 -6 11 -9 16 -6 5 3 8 -8 8 -24 -1 -17 -4 -28
-8 -26 -4 2 -7 -2 -7 -10 0 -8 4 -12 9 -9 4 3 8 1 8 -4 0 -5 -9 -12 -20 -15
-13 -3 -20 0 -20 10 0 8 -4 11 -10 8 -5 -3 -10 0 -10 8 0 8 9 17 20 20 14 4
18 10 13 22 -6 17 -7 17 -19 1 -7 -10 -13 -13 -16 -6 -2 6 -12 2 -25 -10 -18
-16 -21 -25 -13 -45 10 -27 1 -38 -20 -25 -9 5 -20 4 -30 -3 -13 -11 -13 -10
-1 6 15 19 1 23 -18 5 -10 -11 -11 -10 -5 5 3 9 1 24 -5 31 -10 12 -8 13 8 9
16 -4 19 -1 14 18 -4 14 -2 20 5 16 5 -4 9 -18 7 -32 -1 -14 0 -23 3 -20 3 2
11 -3 19 -13 13 -15 13 -15 7 8 -4 14 -6 30 -5 35 1 6 2 24 4 41 1 21 6 30 15
27 10 -4 10 -8 0 -22 -11 -14 -11 -14 4 -3 13 10 17 10 21 0 3 -7 6 -8 6 -2 1
5 -9 21 -21 34 -21 23 -21 23 -2 18 13 -3 21 0 21 8 0 7 -4 11 -8 9 -11 -7
-31 23 -24 35 4 6 13 9 21 6 7 -3 16 -1 19 4 3 5 -3 11 -12 13 -13 3 -11 5 7
7 23 1 23 2 5 10 -11 5 -14 9 -8 9 7 1 19 17 28 37 8 20 37 69 65 111 27 41
50 76 50 79 0 18 151 253 163 254 5 0 5 -5 2 -11z"/>
<path d="M6682 6342 c-7 -9 -10 -12 -7 -6 3 8 -11 11 -48 7 -28 -2 -67 -4 -84
-5 -18 0 -30 -4 -27 -9 3 -5 -1 -12 -9 -15 -18 -7 -95 -96 -99 -115 -2 -7 4
-13 12 -14 8 0 14 -7 12 -15 -3 -11 0 -11 12 -1 12 10 14 9 9 -8 -3 -13 2 -23
16 -31 12 -6 21 -7 20 -3 -3 19 3 57 8 46 2 -7 9 -13 14 -13 6 0 7 5 4 10 -3
6 -1 10 5 10 7 0 10 -6 7 -14 -3 -7 3 -20 14 -29 19 -17 27 -43 10 -32 -5 3
-12 1 -16 -4 -3 -6 3 -8 14 -6 20 4 32 -22 36 -77 2 -16 4 -31 5 -35 2 -5 4
-12 4 -18 1 -5 7 -20 14 -32 9 -17 10 -23 1 -23 -6 0 3 -16 20 -36 17 -19 29
-39 26 -45 -4 -5 -1 -9 5 -9 6 0 9 -4 5 -10 -3 -5 7 -16 23 -24 37 -19 56 -42
42 -51 -6 -4 6 -21 30 -42 22 -20 37 -40 33 -46 -3 -6 -1 -7 5 -3 6 3 13 2 17
-4 3 -5 1 -10 -6 -10 -8 0 -8 -4 1 -15 7 -8 19 -15 26 -15 8 0 14 -5 14 -11 0
-5 5 -7 10 -4 6 3 10 -1 10 -9 0 -9 3 -15 8 -15 20 3 23 -3 11 -18 -13 -17
-12 -17 4 -4 15 12 20 12 26 2 5 -7 10 -11 13 -9 3 1 22 -12 43 -29 21 -18 44
-33 50 -33 17 0 46 -35 38 -45 -5 -4 2 -4 15 -1 15 5 22 3 22 -6 0 -8 3 -9 8
-3 9 13 42 16 42 4 0 -5 7 -6 15 -2 10 3 15 0 13 -8 -2 -8 3 -13 11 -11 7 1
19 -2 26 -8 7 -6 16 -7 18 -3 7 10 48 10 65 -1 7 -4 12 -3 12 1 0 12 38 14 45
2 9 -13 53 -11 58 4 4 9 6 9 6 -1 1 -10 6 -10 24 -2 21 11 21 11 -2 -8 -13
-10 -21 -25 -18 -33 4 -11 6 -10 6 3 1 10 8 15 19 13 18 -3 18 -25 -1 -37 -7
-4 -3 -7 11 -8 12 0 32 0 44 0 13 -1 24 4 26 10 2 5 9 7 14 4 6 -4 8 -3 5 2
-3 6 -3 14 1 20 9 12 65 37 58 25 -6 -9 22 -26 37 -23 4 1 7 -5 7 -13 0 -13 4
-14 20 -5 11 6 20 16 20 22 0 6 11 21 25 34 22 20 24 27 15 45 -7 11 -9 31 -6
42 5 23 -15 59 -30 56 -14 -3 -44 12 -40 20 8 12 -21 29 -35 20 -8 -5 -10 -9
-6 -9 4 0 3 -9 -3 -20 -8 -15 -8 -20 2 -18 8 2 12 -10 13 -34 1 -29 -2 -35
-12 -26 -10 8 -13 6 -13 -6 0 -13 -4 -15 -19 -7 -27 15 -101 88 -101 100 0 6
-6 8 -14 5 -15 -6 -16 11 -3 32 4 7 1 12 -6 11 -35 -1 -48 4 -41 16 6 9 5 9
-7 0 -13 -10 -16 -10 -16 2 0 8 4 15 9 15 5 0 8 8 6 18 -3 20 9 42 23 42 6 0
5 -8 -1 -21 -7 -11 -9 -23 -7 -26 3 -2 10 5 17 16 6 12 15 19 19 16 5 -3 11 2
14 10 4 9 1 12 -9 8 -7 -3 -14 0 -14 6 0 6 0 14 0 19 0 4 4 7 9 7 5 0 13 4 18
9 5 5 3 6 -4 2 -7 -4 -13 -2 -13 4 0 17 25 6 26 -11 0 -8 4 -22 9 -32 7 -17 8
-17 22 0 14 17 14 17 8 -2 -3 -11 -2 -16 2 -11 12 11 10 96 -2 96 -6 0 -11 23
-12 51 0 28 -6 56 -13 62 -10 9 -11 9 -5 -3 8 -13 7 -13 -8 -1 -18 14 -23 26
-8 17 5 -3 12 1 15 10 3 8 2 12 -4 9 -17 -11 -11 0 12 19 20 18 21 18 15 0 -6
-17 -6 -17 5 -3 7 9 19 18 27 20 17 6 23 37 7 36 -39 -1 -66 4 -62 11 3 5 -16
5 -42 1 -28 -4 -55 -3 -67 4 -11 6 -22 9 -25 8 -3 -2 -13 -7 -23 -13 -16 -8
-18 -6 -15 14 2 17 -1 22 -14 20 -13 -2 -16 2 -11 14 4 11 2 15 -4 11 -6 -4
-14 0 -17 9 -4 10 -2 13 7 9 6 -4 3 1 -7 9 -15 12 -16 16 -5 16 12 0 12 2 0 9
-8 5 -23 8 -33 6 -24 -5 -46 33 -23 41 22 9 18 22 -7 20 -11 0 -23 5 -26 13
-3 9 0 11 8 6 8 -5 11 -4 6 3 -4 6 -14 8 -24 5 -9 -3 -14 -3 -10 1 4 5 -5 18
-20 31 -23 20 -28 21 -41 7 -10 -10 -16 -11 -19 -3 -2 6 -14 11 -27 11 -13 0
-26 6 -29 13 -3 6 -4 3 -1 -9 4 -14 -2 -24 -19 -33 -25 -14 -70 -6 -61 10 4 5
1 9 -5 9 -6 0 -8 5 -5 10 4 6 11 7 17 4 7 -4 8 -2 4 4 -9 15 -36 16 -36 2 0
-5 -7 -10 -16 -10 -8 0 -12 5 -8 11 5 8 1 8 -14 0 -14 -7 -23 -8 -27 -1 -3 5
-11 10 -16 10 -6 0 -8 -3 -6 -7 3 -5 -6 -8 -19 -8 -13 0 -24 3 -24 7 0 3 -8 5
-17 3 -20 -3 -76 33 -69 44 3 4 1 12 -2 19 -6 8 -11 6 -20 -6z m-88 -164 c-4
-7 -3 -8 4 -4 6 4 20 2 30 -3 12 -6 23 -6 28 -1 6 6 15 5 24 0 13 -9 13 -10 0
-10 -11 0 -9 -4 5 -12 25 -15 45 -19 45 -8 0 5 7 7 15 6 17 -2 65 -52 65 -68
0 -5 7 -8 15 -4 8 3 15 1 15 -4 0 -6 5 -10 11 -10 5 0 7 5 3 12 -4 7 -3 8 4 4
6 -4 8 -14 5 -23 -4 -11 -3 -14 6 -9 6 4 18 2 26 -4 12 -10 15 -10 15 1 0 11
2 11 10 -1 5 -9 5 -17 0 -20 -5 -3 1 -17 13 -31 43 -48 49 -57 35 -55 -7 0
-13 -3 -13 -9 0 -5 4 -9 8 -7 5 1 6 -2 3 -7 -4 -5 0 -16 8 -24 8 -8 12 -17 9
-21 -4 -3 -1 -6 5 -6 7 0 12 5 12 11 0 5 4 7 10 4 14 -8 -8 -31 -32 -32 -14
-1 -17 3 -14 15 3 9 1 24 -5 32 -8 11 -9 9 -3 -10 6 -25 6 -25 -14 -5 -10 11
-18 23 -15 27 2 4 -3 5 -11 2 -11 -4 -16 0 -16 12 0 9 -3 15 -6 11 -3 -3 -14
2 -24 10 -12 11 -17 25 -14 47 4 26 3 29 -8 15 -13 -16 -38 -15 -38 2 0 6 4 8
8 5 5 -3 9 2 9 11 0 13 -3 12 -17 -4 -13 -17 -20 -19 -36 -10 -28 15 -82 75
-75 83 3 4 1 4 -5 1 -6 -4 -26 5 -44 18 -18 13 -38 22 -43 18 -6 -3 -7 -1 -3
5 11 18 -5 14 -19 -5 -11 -14 -14 -12 -28 16 -15 31 -15 32 0 20 15 -12 16
-12 10 3 -3 9 -1 19 6 22 21 8 28 6 21 -6z"/>
<path d="M9425 6269 c-27 -5 -81 -11 -120 -13 -38 -2 -73 -4 -77 -5 -5 -1 -8
-10 -8 -22 0 -12 -8 -23 -20 -26 -11 -3 -17 -9 -14 -14 3 -5 -6 -14 -20 -21
-14 -6 -26 -17 -26 -24 0 -6 -11 -22 -25 -35 -13 -13 -25 -29 -25 -35 0 -18
-88 -12 -95 6 -4 10 -12 2 -24 -25 -10 -22 -37 -67 -59 -99 -23 -33 -42 -65
-42 -71 0 -6 11 -22 25 -35 14 -13 25 -28 25 -34 0 -5 -7 -1 -15 10 -14 18
-15 18 -6 -7 8 -21 5 -31 -15 -52 -14 -15 -22 -27 -19 -27 21 0 -95 -78 -180
-120 -55 -28 -109 -59 -120 -69 -11 -10 -30 -22 -42 -26 -30 -8 -29 -19 4 -45
l28 -21 9 20 c5 12 29 27 56 36 26 9 55 24 65 35 18 20 102 53 115 45 18 -11
-5 -48 -44 -72 -22 -14 -53 -41 -69 -59 -15 -18 -36 -36 -47 -39 -31 -10 -24
-27 27 -62 48 -34 66 -31 55 9 -3 14 8 32 39 61 62 60 122 105 153 116 14 6
26 15 26 20 0 5 21 23 48 40 26 16 67 44 92 61 25 16 53 36 63 43 10 6 30 31
45 54 19 30 34 43 57 46 63 11 70 15 88 50 20 43 33 46 66 12 13 -14 31 -25
41 -25 29 0 50 11 50 26 0 7 6 17 13 21 6 4 22 29 34 54 23 49 17 69 -18 69
-20 0 -34 16 -20 24 4 3 11 19 14 36 8 37 19 38 41 5 23 -35 60 -33 74 3 21
56 22 63 6 69 -8 3 -14 15 -12 26 2 14 -8 28 -31 44 -19 13 -39 22 -45 20 -19
-6 -18 -48 0 -68 18 -20 17 -20 -11 -9 -15 6 -37 9 -49 8 -17 -3 -20 3 -22 37
-2 22 2 45 8 52 6 7 9 12 7 12 -2 -1 -26 -5 -54 -10z"/>
<path d="M10135 5490 c-44 -18 -87 -80 -55 -80 6 0 10 -7 10 -15 0 -8 -4 -15
-8 -15 -4 0 -16 -14 -26 -30 -15 -27 -22 -30 -58 -28 -34 3 -43 8 -52 29 l-9
27 -43 -52 c-23 -28 -60 -66 -83 -85 -22 -19 -41 -43 -41 -52 0 -10 -10 -24
-22 -30 -13 -7 -43 -32 -68 -57 -25 -25 -73 -67 -106 -94 -34 -26 -69 -59 -78
-73 -9 -14 -21 -25 -27 -25 -6 0 -20 -11 -30 -24 -11 -14 -35 -34 -54 -46 -38
-24 -45 -44 -17 -58 20 -11 52 -1 71 22 21 25 66 20 85 -9 24 -36 21 -46 -30
-100 -45 -47 -46 -49 -25 -59 16 -7 32 -4 65 12 48 25 176 147 194 187 6 14
18 25 26 25 9 0 27 12 41 28 14 15 46 38 72 52 31 17 60 43 83 77 19 28 47 58
62 67 14 9 39 36 55 61 31 49 47 56 63 25 19 -35 57 -54 85 -42 29 13 73 86
89 149 15 57 1 102 -39 129 -26 17 -34 36 -14 32 6 -2 14 3 16 10 3 8 -6 12
-26 12 -20 0 -34 7 -41 20 -11 21 -32 24 -65 10z"/>
<path d="M7980 5247 c0 -1 5 -18 10 -37 6 -19 13 -64 16 -100 3 -36 7 -76 10
-90 3 -14 7 -53 9 -87 2 -35 7 -68 10 -73 9 -15 25 -12 25 4 0 8 5 18 12 22 7
4 8 3 4 -4 -4 -7 -3 -12 2 -12 6 0 13 7 16 16 3 8 11 12 17 8 8 -4 9 -3 5 5
-6 8 -12 9 -20 2 -18 -15 -29 -1 -14 17 16 18 19 42 6 42 -6 0 -8 -6 -5 -13 3
-8 0 -14 -7 -14 -7 0 -12 13 -11 31 1 17 -1 36 -4 41 -15 29 0 87 21 84 7 -1
20 -1 28 0 12 1 12 4 -2 12 -10 5 -18 15 -18 20 0 6 -13 21 -29 35 -17 14 -31
36 -33 51 -2 16 -12 29 -25 34 -13 5 -23 7 -23 6z"/>
<path d="M3102 5023 c-21 -48 -21 -49 -3 -130 10 -45 16 -85 13 -88 -3 -3 -1
-5 5 -5 10 0 26 -36 24 -52 -1 -5 4 -8 11 -8 6 0 8 -3 5 -6 -3 -4 -1 -16 5
-28 7 -11 12 -29 13 -39 0 -10 5 -21 10 -25 10 -7 16 -38 16 -78 0 -12 -14
-57 -31 -100 -16 -43 -30 -83 -30 -88 0 -5 -8 -18 -17 -29 -18 -19 -18 -20 14
-3 52 26 74 56 72 96 -3 57 0 65 31 96 46 45 47 77 7 180 -38 100 -97 285 -97
306 0 8 -6 22 -13 32 -12 17 -15 14 -35 -31z"/>
<path d="M5438 4646 c-34 -23 -78 -90 -66 -102 4 -3 27 -1 52 5 25 6 72 11
105 11 66 0 71 6 50 53 -23 51 -91 67 -141 33z"/>
<path d="M2665 4438 c-21 -53 -21 -184 0 -253 22 -73 19 -136 -10 -207 -27
-66 -31 -88 -16 -88 13 0 73 89 67 99 -3 4 3 30 14 57 23 61 28 146 11 197 -7
21 -11 47 -8 57 3 11 0 18 -6 17 -14 -3 -26 66 -20 120 6 55 -10 55 -32 1z"/>
<path d="M2544 4298 c-5 -7 -20 -33 -34 -58 -13 -25 -52 -89 -87 -142 -35 -54
-63 -100 -63 -103 0 -4 -33 -57 -74 -118 -40 -62 -89 -141 -108 -177 -54 -100
-81 -136 -140 -184 -29 -24 -77 -72 -107 -107 -30 -35 -62 -71 -70 -80 -9 -9
-38 -42 -66 -74 -27 -33 -82 -90 -121 -127 -103 -98 -314 -354 -337 -408 -6
-14 -21 -38 -33 -55 -11 -16 -31 -51 -43 -76 -29 -62 -53 -81 -141 -114 -65
-25 -199 -90 -280 -136 -140 -80 -220 -195 -220 -317 0 -37 -9 -59 -49 -121
-63 -98 -78 -128 -112 -224 -34 -95 -50 -116 -178 -246 -117 -118 -223 -248
-257 -313 l-24 -47 0 -536 0 -535 2499 0 2500 0 -15 42 c-21 62 -59 132 -142
268 -41 66 -86 156 -103 202 -16 46 -34 92 -41 103 -6 11 -14 57 -16 102 -3
64 -1 86 12 104 9 13 16 31 16 39 0 9 14 35 31 59 39 52 41 51 -106 127 -60
31 -145 76 -187 100 -43 24 -79 44 -82 44 -2 0 -52 22 -111 50 -59 27 -108 50
-110 50 -11 0 -168 100 -234 148 -40 29 -114 81 -165 115 -308 208 -471 374
-464 471 3 38 6 41 41 49 21 5 41 16 44 23 7 18 -36 89 -100 166 -84 102 -107
116 -128 77 -6 -12 -29 -38 -50 -57 -21 -20 -39 -42 -39 -50 0 -8 -14 -19 -30
-25 -27 -10 -42 -31 -45 -62 0 -5 -7 -9 -14 -7 -8 2 -20 -6 -28 -18 -9 -12
-25 -20 -42 -20 -31 0 -44 -18 -44 -57 0 -13 -3 -23 -7 -23 -3 0 -5 -14 -2
-30 3 -24 1 -30 -13 -30 -15 0 -15 3 -5 15 20 25 8 24 -29 -2 -19 -12 -31 -23
-27 -23 4 0 0 -7 -8 -16 -9 -8 -13 -20 -10 -26 5 -7 11 -5 20 6 8 11 14 13 19
7 3 -6 2 -11 -4 -11 -13 0 -43 -55 -35 -63 4 -3 17 -2 31 4 32 12 33 12 33 -5
0 -21 -24 -26 -88 -20 l-57 6 -20 -52 c-11 -28 -24 -54 -28 -57 -19 -12 -16 7
9 50 40 73 28 87 -28 32 -27 -26 -48 -42 -48 -36 0 17 -66 13 -81 -5 -17 -21
-104 -80 -94 -64 6 9 0 10 -26 5 -32 -7 -33 -6 -14 8 11 8 23 13 27 11 5 -3 8
4 8 16 0 18 -3 19 -22 9 -13 -7 -35 -20 -50 -30 -14 -11 -33 -19 -42 -19 -9 0
-19 -7 -22 -15 -4 -8 -12 -15 -20 -15 -26 0 -14 16 22 30 34 14 59 41 48 53
-9 8 -54 -14 -54 -27 0 -6 -5 -4 -10 4 -9 12 -19 5 -60 -40 -27 -30 -52 -51
-56 -47 -4 4 9 24 29 45 52 53 47 82 -14 82 -14 0 -19 7 -19 25 0 21 6 26 40
31 22 4 40 10 40 13 0 13 -24 31 -43 31 -30 0 -9 19 28 26 19 3 35 10 35 14 0
10 -26 20 -50 20 -11 0 -19 9 -22 25 -4 20 -1 25 16 25 12 0 27 9 33 19 11 17
17 18 45 10 41 -11 48 -11 48 1 0 6 -5 10 -11 10 -6 0 -17 7 -26 15 -11 12
-30 15 -74 11 -46 -4 -59 -2 -59 9 0 12 24 14 123 13 l122 -1 85 43 c82 42 88
44 183 45 96 1 99 2 121 30 22 27 25 28 54 16 27 -12 35 -11 57 3 13 9 44 16
67 16 41 0 46 4 98 67 30 36 62 74 71 82 40 40 39 53 -4 106 -22 27 -46 55
-52 60 -6 6 -20 24 -31 40 -10 17 -45 67 -76 112 -32 45 -58 85 -58 89 0 4 -6
15 -14 23 -15 18 -95 173 -121 236 -9 22 -26 59 -37 83 -11 23 -35 86 -53 140
-18 54 -44 118 -56 142 -18 34 -25 65 -28 128 -2 63 -7 85 -18 89 -10 4 -46
-25 -108 -88 -51 -52 -126 -126 -166 -166 -81 -78 -151 -156 -207 -230 -21
-26 -49 -61 -64 -78 -16 -16 -28 -34 -28 -40 0 -5 -9 -21 -20 -35 -11 -14 -20
-34 -20 -46 0 -22 -33 -57 -65 -68 -11 -4 -15 -10 -10 -14 6 -4 11 -20 12 -37
1 -16 7 -31 13 -33 5 -2 10 -15 10 -28 0 -17 6 -24 19 -24 26 0 45 -26 36 -47
-4 -10 -7 -30 -6 -45 2 -20 -1 -26 -11 -23 -8 3 -14 20 -14 40 0 28 4 34 16
30 8 -3 2 6 -13 20 -33 29 -46 32 -42 8 1 -10 -2 -24 -8 -30 -7 -9 -5 -13 6
-13 20 0 30 -29 16 -46 -6 -8 -9 -25 -7 -38 3 -13 -1 -31 -8 -40 -10 -15 -9
-21 7 -37 20 -20 20 -20 39 3 16 19 19 20 20 6 0 -9 -4 -20 -10 -23 -5 -3 -10
-15 -10 -26 0 -24 -29 -37 -40 -18 -5 7 -12 10 -16 6 -4 -4 1 -13 11 -20 17
-13 16 -16 -16 -49 -19 -20 -40 -44 -47 -53 -8 -9 -21 -15 -30 -13 -13 3 -16
13 -14 48 5 80 4 114 -4 152 -13 53 -31 36 -48 -43 -8 -35 -15 -56 -15 -46 -1
9 -6 17 -13 17 -9 0 -9 3 0 12 7 7 12 20 12 30 0 15 -7 18 -35 16 -20 -1 -41
-8 -48 -16 -16 -20 -8 -92 14 -120 10 -14 16 -29 12 -35 -6 -10 -33 18 -33 36
0 4 -7 15 -15 23 -8 9 -15 31 -15 50 0 47 -23 54 -55 15 -14 -16 -32 -28 -39
-25 -9 3 -15 -6 -19 -25 -4 -17 -12 -31 -18 -31 -7 0 -9 10 -7 25 3 14 1 28
-3 31 -5 3 -9 29 -9 57 0 51 21 98 76 175 14 19 14 22 2 22 -8 0 -23 -10 -34
-21 l-19 -21 -5 33 c-4 29 -8 34 -30 31 -14 -2 -29 -8 -34 -13 -19 -17 -29 -9
-12 10 9 10 36 22 59 25 33 5 50 15 76 46 19 22 39 40 46 40 24 0 74 31 80 50
11 35 68 70 113 70 22 0 44 5 48 11 3 6 25 19 49 29 32 14 49 30 72 71 17 30
40 63 50 74 10 11 37 45 60 75 22 30 73 89 113 130 379 392 360 370 360 424 0
28 10 62 29 97 39 74 44 114 25 178 -16 56 -13 156 7 235 11 40 8 55 -7 34z
m-1788 -3473 c24 -62 -83 -160 -137 -126 -10 6 -25 11 -32 11 -7 0 -32 16 -55
36 -35 30 -43 33 -48 19 -15 -39 -98 -56 -165 -34 -54 18 -108 76 -94 99 4 6
107 10 266 10 222 0 260 -2 265 -15z m-201 -189 c73 -13 145 -40 180 -69 20
-16 33 -33 30 -38 -4 -5 -23 5 -44 21 -40 32 -179 77 -206 66 -8 -3 -15 -17
-15 -30 0 -51 -92 -75 -200 -53 -103 21 -106 86 -5 107 37 8 206 5 260 -4z
m155 -190 c25 -24 59 -48 75 -53 17 -5 30 -13 30 -17 0 -5 -94 -8 -210 -8
-116 1 -253 -2 -305 -6 -92 -7 -95 -8 -95 -31 0 -14 -6 -26 -13 -29 -8 -2 -12
13 -13 52 -1 31 -2 64 -3 73 -2 29 22 26 26 -4 l3 -28 258 -2 c141 -1 257 -1
257 1 0 2 -16 20 -35 40 -33 36 -43 56 -28 56 4 0 28 -20 53 -44z m28 -176
c30 -25 40 -82 19 -113 -21 -32 -93 -51 -144 -38 -48 12 -104 33 -174 64 -89
40 -198 59 -200 36 -1 -8 -3 -27 -4 -44 -4 -59 -5 -65 -15 -65 -6 0 -10 30
-10 71 l0 72 82 -6 c81 -6 97 -11 246 -78 100 -46 212 -29 212 31 0 18 -11 39
-32 59 -35 34 -18 43 20 11z"/>
<path d="M520 791 c17 -32 69 -63 115 -69 37 -4 47 -1 69 21 14 14 26 35 26
47 0 19 -6 20 -110 20 -106 0 -110 -1 -100 -19z"/>
<path d="M3138 4219 c-102 -89 -158 -147 -158 -166 0 -7 -7 -13 -17 -13 -9 0
-31 -11 -49 -25 -18 -14 -35 -25 -38 -25 -4 0 -39 -31 -79 -69 -39 -37 -88
-84 -108 -102 -47 -43 -50 -55 -28 -104 10 -22 19 -55 19 -72 0 -18 6 -50 14
-70 8 -21 26 -74 39 -118 24 -75 153 -400 176 -441 5 -11 26 -52 46 -93 34
-71 137 -214 228 -316 l44 -49 244 244 c285 286 369 374 369 388 0 5 -17 31
-39 58 -46 59 -73 116 -100 213 -21 76 -61 155 -120 236 -21 28 -59 84 -86
125 -27 41 -73 108 -102 149 -29 40 -61 96 -72 125 -11 28 -31 78 -46 110 -14
33 -24 68 -22 78 10 35 -22 18 -115 -63z m2 -160 c0 -5 -4 -7 -10 -4 -5 3 -10
1 -10 -4 0 -6 5 -11 11 -11 5 0 7 -5 4 -10 -4 -6 -16 -8 -27 -4 -14 4 -18 2
-14 -5 4 -6 2 -11 -3 -11 -6 0 -11 -5 -11 -11 0 -5 6 -7 13 -3 6 4 9 4 5 0
-10 -11 15 -35 27 -27 6 5 19 11 29 15 19 6 19 6 3 -12 -9 -10 -17 -24 -17
-30 0 -6 -4 -14 -10 -17 -5 -3 -8 0 -7 7 2 7 2 9 -1 5 -2 -4 -11 -2 -20 5 -15
11 -15 11 -5 -3 7 -9 9 -20 5 -24 -4 -5 -1 -5 6 -1 20 12 25 -20 7 -48 -9 -14
-16 -27 -16 -30 3 -19 -1 -26 -15 -26 -8 0 -12 -5 -9 -10 4 -6 11 -7 17 -4 7
4 8 2 4 -4 -5 -9 -13 -9 -27 -2 -11 6 -17 15 -14 20 3 6 -1 7 -9 4 -13 -5 -14
-8 -1 -20 8 -8 11 -22 8 -32 -5 -14 -3 -15 8 -4 18 16 34 16 20 -1 -15 -19 -2
-28 21 -16 11 6 22 8 25 6 2 -3 -5 -8 -16 -12 -13 -4 -18 -11 -14 -18 4 -7 -1
-6 -10 2 -15 12 -21 9 -18 -11 0 -4 -5 -5 -13 -2 -8 3 -17 0 -21 -5 -3 -6 -11
-9 -16 -5 -6 4 -6 11 2 20 14 17 -2 19 -19 2 -7 -7 -12 -9 -12 -6 0 4 7 14 16
23 15 15 18 15 37 -2 20 -18 20 -18 8 5 -7 13 -10 26 -7 29 7 7 -25 32 -41 33
-7 0 -13 -5 -13 -12 0 -6 3 -8 7 -5 9 9 34 -13 27 -24 -3 -5 -10 -9 -15 -9 -6
0 -7 5 -4 10 3 6 1 10 -4 10 -6 0 -11 -8 -11 -17 0 -11 -3 -14 -8 -7 -11 18
-38 12 -38 -8 0 -10 4 -14 9 -9 11 11 39 2 32 -10 -3 -4 4 -13 15 -19 25 -13
26 -33 1 -25 -10 3 -24 -1 -31 -10 -9 -11 -9 -15 -1 -15 7 0 10 -4 6 -9 -3 -5
0 -13 6 -17 8 -4 9 -3 5 4 -7 11 31 38 41 28 9 -9 -8 -27 -19 -20 -6 4 -9 1
-6 -7 6 -17 34 -19 30 -1 -1 6 3 12 9 12 7 0 9 -10 5 -26 -6 -22 -5 -24 8 -12
7 7 11 18 8 23 -2 6 1 5 8 -2 18 -16 -8 -41 -52 -50 l-33 -7 35 -9 c19 -4 43
-8 53 -8 15 0 15 -3 5 -22 -7 -12 -11 -31 -10 -42 l2 -20 -9 20 c-9 19 -10 19
-10 1 -1 -27 -14 -11 -16 18 0 18 3 22 11 15 8 -7 14 -7 18 0 7 10 2 14 -26
24 -12 4 -16 1 -13 -14 4 -20 -9 -26 -20 -8 -5 7 -13 5 -25 -6 -15 -14 -22
-14 -40 -5 -17 9 -21 9 -18 0 2 -6 6 -10 8 -9 12 6 50 -23 44 -34 -5 -9 -4 -9
6 0 11 10 17 10 29 0 12 -9 13 -9 7 1 -4 6 -2 12 3 12 6 0 11 -9 11 -20 0 -14
5 -18 17 -13 10 4 14 2 10 -4 -4 -6 0 -16 8 -23 15 -12 10 -40 -7 -40 -6 0 -8
6 -5 13 3 8 -1 14 -8 14 -7 0 -11 -7 -10 -16 1 -9 0 -10 -2 -3 -3 6 -9 12 -14
12 -6 0 -8 3 -5 8 2 4 -2 18 -11 32 -8 14 -12 17 -9 7 3 -11 2 -15 -4 -12 -6
3 -10 0 -11 -7 0 -7 -5 -3 -11 10 -6 12 -16 22 -22 22 -6 0 -4 5 4 11 12 9 11
10 -7 6 -12 -3 -24 0 -26 7 -2 6 -8 -5 -12 -24 -4 -19 -15 -41 -24 -48 -9 -7
-10 -10 -2 -6 11 5 13 1 9 -20 -3 -14 -1 -26 3 -26 5 0 9 -5 9 -11 0 -13 -31
-8 -32 6 0 6 -8 21 -18 35 -17 25 -33 83 -21 75 4 -2 7 6 8 18 0 12 -1 16 -4
10 -3 -7 -9 -13 -15 -13 -6 0 -8 7 -4 15 3 8 2 15 -2 15 -10 0 -38 64 -48 110
-20 94 -8 134 35 110 15 -8 18 -5 16 15 -2 13 -6 29 -10 34 -10 17 0 13 25 -9
17 -15 26 -17 31 -9 4 7 14 9 22 6 13 -5 14 -2 8 16 -10 26 -37 30 -35 5 2
-21 -12 -24 -18 -5 -3 6 9 23 26 37 16 14 26 19 22 11 -7 -11 -5 -11 9 -4 10
6 26 8 36 6 15 -4 19 0 19 21 0 14 -5 26 -12 26 -6 0 -3 7 8 16 10 8 14 13 7
10 -6 -4 -14 -2 -17 3 -3 5 1 11 9 15 8 3 15 1 15 -5 0 -6 5 -7 11 -3 8 5 8 1
0 -14 -9 -17 -8 -20 14 -18 26 1 45 26 21 26 -17 0 -29 27 -15 35 5 4 9 3 8
-2 -4 -20 2 -24 18 -12 11 10 14 10 9 2 -4 -8 -2 -13 4 -13 6 0 9 -4 6 -8 -3
-5 9 -9 27 -9 18 0 26 2 19 5 -6 2 -10 8 -6 13 3 5 -2 9 -10 9 -9 0 -16 4 -16
8 0 5 -12 13 -27 20 -20 8 -21 10 -5 6 12 -3 21 -2 20 3 -1 4 4 19 12 33 7 14
13 26 12 28 -1 1 1 2 4 1 4 0 10 3 13 8 7 10 43 32 54 32 4 1 7 -4 7 -10z"/>
<path d="M1335 3819 c-22 -16 -51 -51 -64 -76 -32 -63 -27 -159 14 -258 65
-160 149 -248 277 -290 51 -17 63 -18 110 -6 53 14 78 27 78 41 0 5 -24 26
-52 47 -118 85 -171 159 -262 361 -37 81 -46 113 -46 157 0 30 -3 55 -7 55 -5
0 -26 -14 -48 -31z"/>
<path d="M1171 3725 c-74 -40 -91 -56 -121 -115 -19 -37 -21 -53 -16 -104 14
-128 99 -285 185 -342 52 -34 163 -74 205 -74 18 0 44 9 57 19 14 10 42 26 63
35 43 18 43 22 6 30 -56 11 -91 26 -135 56 -105 72 -198 238 -212 377 -5 51
-2 68 16 103 12 24 21 44 19 46 -2 1 -32 -13 -67 -31z"/>
<path d="M3898 3106 c-35 -30 -103 -98 -153 -152 -115 -125 -256 -265 -329
-329 -32 -27 -76 -67 -98 -87 l-41 -37 100 -98 c55 -54 114 -118 132 -142 29
-41 30 -45 15 -62 -9 -10 -25 -21 -35 -24 -40 -13 -18 -78 64 -187 57 -76 157
-165 327 -292 63 -47 120 -89 126 -94 33 -29 207 -126 444 -251 52 -27 135
-70 184 -96 49 -26 141 -67 205 -91 l116 -43 43 20 c23 12 42 25 42 30 0 6 4
8 9 5 10 -7 65 19 78 37 5 6 17 82 27 167 10 85 22 173 26 195 5 22 19 94 31
160 13 66 35 149 51 183 15 35 28 75 28 88 0 20 -5 24 -33 24 -79 0 -355 133
-462 223 -25 21 -91 93 -146 160 -55 67 -108 131 -117 142 -35 42 -87 109
-107 139 -12 18 -29 31 -42 31 -12 0 -58 33 -105 75 -47 41 -123 102 -169 135
-99 71 -179 143 -179 161 0 7 12 21 27 32 16 11 22 22 15 26 -6 3 -39 -18 -74
-48z"/>
<path d="M224 3013 c3 -7 1 -13 -3 -13 -5 0 -12 6 -14 13 -3 6 -6 -2 -6 -18
-1 -19 -9 -35 -21 -43 -11 -7 -20 -8 -20 -3 0 5 7 11 15 15 8 3 15 11 15 18 0
9 -3 9 -12 0 -7 -7 -19 -12 -27 -12 -12 0 -12 3 -3 12 7 7 12 16 12 22 0 5 -6
2 -13 -9 -8 -10 -18 -15 -24 -12 -5 3 -21 0 -36 -8 -19 -10 -27 -10 -31 -2 -3
8 -5 8 -5 -1 -1 -7 -6 -10 -11 -7 -6 3 -10 1 -10 -5 0 -6 -5 -8 -10 -5 -6 4
-7 12 -4 18 4 7 3 9 -1 4 -15 -13 -18 -129 -3 -138 19 -13 28 -11 28 6 0 13 3
14 23 2 12 -8 33 -13 47 -11 14 1 33 -5 42 -13 20 -18 53 -4 61 27 6 22 -8 38
-16 18 -2 -7 -8 -10 -12 -5 -10 8 -2 18 17 21 7 1 23 10 35 21 20 17 21 20 5
31 -9 7 -21 10 -26 6 -5 -3 -1 -9 10 -13 17 -7 17 -8 1 -8 -10 -1 -15 -5 -12
-11 3 -5 1 -10 -4 -10 -9 0 -9 28 -1 50 1 3 2 14 2 25 -1 15 0 16 4 3 3 -9 12
-19 21 -22 12 -5 14 0 11 24 -3 16 -1 30 4 30 4 0 8 4 8 8 0 4 -9 8 -20 8 -13
0 -19 -5 -16 -13z"/>
</g>
</svg>
